<svg width="54" height="54" viewBox="0 0 54 54" fill="none" xmlns="http://www.w3.org/2000/svg">
<path d="M22.2452 37.8854C22.0788 37.8867 21.9139 37.8544 21.7602 37.7906C21.6066 37.7269 21.4673 37.6328 21.3508 37.5141L11.3355 27.5072C11.1005 27.2688 10.9688 26.9475 10.9688 26.6128C10.9688 26.2781 11.1005 25.9569 11.3355 25.7185C11.4524 25.6001 11.5917 25.5061 11.7452 25.4419C11.8987 25.3778 12.0635 25.3448 12.2298 25.3448C12.3962 25.3448 12.5609 25.3778 12.7144 25.4419C12.868 25.5061 13.0073 25.6001 13.1242 25.7185L22.2535 34.8478L41.2717 16.3613C41.5146 16.14 41.834 16.0219 42.1624 16.0318C42.4908 16.0418 42.8026 16.1791 43.0316 16.4147C43.2606 16.6503 43.3891 16.9657 43.3897 17.2943C43.3904 17.6228 43.2632 17.9388 43.0351 18.1753L23.1311 37.531C22.8919 37.7579 22.5749 37.8847 22.2452 37.8854Z" fill="black"/>
</svg>
