<svg width="54" height="54" viewBox="0 0 54 54" fill="none" xmlns="http://www.w3.org/2000/svg">
<path d="M42.4406 28.2148H11.3906C11.055 28.2148 10.733 28.0815 10.4957 27.8442C10.2583 27.6068 10.125 27.2849 10.125 26.9492C10.125 26.6136 10.2583 26.2916 10.4957 26.0543C10.733 25.8169 11.055 25.6836 11.3906 25.6836H42.4406C42.7763 25.6836 43.0982 25.8169 43.3356 26.0543C43.5729 26.2916 43.7062 26.6136 43.7062 26.9492C43.7062 27.2849 43.5729 27.6068 43.3356 27.8442C43.0982 28.0815 42.7763 28.2148 42.4406 28.2148Z" fill="black"/>
<path d="M26.916 43.7063C26.5804 43.7063 26.2584 43.573 26.0211 43.3356C25.7837 43.0983 25.6504 42.7763 25.6504 42.4407V11.3906C25.6504 11.055 25.7837 10.733 26.0211 10.4957C26.2584 10.2583 26.5804 10.125 26.916 10.125C27.2517 10.125 27.5736 10.2583 27.811 10.4957C28.0483 10.733 28.1816 11.055 28.1816 11.3906V42.4407C28.1816 42.7763 28.0483 43.0983 27.811 43.3356C27.5736 43.573 27.2517 43.7063 26.916 43.7063Z" fill="black"/>
</svg>
