<svg width="54" height="54" viewBox="0 0 54 54" fill="none" xmlns="http://www.w3.org/2000/svg">
<path d="M44.3486 47.0054H9.42578C9.14606 47.0054 8.87777 46.8942 8.67998 46.6964C8.48219 46.4986 8.37109 46.2304 8.37109 45.9507V38.4329C8.37109 38.1531 8.48219 37.8849 8.67998 37.6871C8.87777 37.4893 9.14606 37.3782 9.42578 37.3782H44.3486C44.6283 37.3782 44.8966 37.4893 45.0944 37.6871C45.2921 37.8849 45.4033 38.1531 45.4033 38.4329V45.9507C45.4033 46.2304 45.2921 46.4986 45.0944 46.6964C44.8966 46.8942 44.6283 47.0054 44.3486 47.0054ZM10.4805 44.896H43.2939V39.4707H10.4805V44.896Z" fill="black"/>
<path d="M38.5091 39.4706H14.6816C14.4019 39.4706 14.1337 39.3595 13.9359 39.1617C13.7381 38.964 13.627 38.6957 13.627 38.4159V25.9706C13.627 22.5312 14.9933 19.2326 17.4253 16.8005C19.8574 14.3685 23.1559 13.0022 26.5954 13.0022C30.0348 13.0022 33.3334 14.3685 35.7655 16.8005C38.1975 19.2326 39.5638 22.5312 39.5638 25.9706V38.4497C39.5551 38.7236 39.4401 38.9832 39.2432 39.1738C39.0464 39.3643 38.7831 39.4708 38.5091 39.4706ZM15.7279 37.3613H37.4461V25.9706C37.4461 23.0906 36.3019 20.3286 34.2655 18.2921C32.229 16.2556 29.4669 15.1116 26.5869 15.1116C23.7069 15.1116 20.9449 16.2556 18.9084 18.2921C16.872 20.3286 15.7279 23.0906 15.7279 25.9706V37.3613Z" fill="black"/>
<path d="M26.8818 10.606C26.6021 10.606 26.3338 10.4948 26.136 10.297C25.9382 10.0992 25.8271 9.83103 25.8271 9.55131V2.74219C25.8271 2.46247 25.9382 2.19418 26.136 1.99639C26.3338 1.7986 26.6021 1.6875 26.8818 1.6875C27.1616 1.6875 27.4298 1.7986 27.6276 1.99639C27.8254 2.19418 27.9365 2.46247 27.9365 2.74219V9.55131C27.9365 9.83103 27.8254 10.0992 27.6276 10.297C27.4298 10.4948 27.1616 10.606 26.8818 10.606Z" fill="black"/>
<path d="M15.3399 15.1454C15.2022 15.1461 15.0658 15.1195 14.9384 15.0674C14.811 15.0153 14.6951 14.9386 14.5974 14.8416L9.78802 10.0238C9.59109 9.82683 9.48047 9.55975 9.48047 9.28125C9.48047 9.00276 9.59109 8.73567 9.78802 8.53875C9.98494 8.34183 10.252 8.2312 10.5305 8.2312C10.809 8.2312 11.0761 8.34183 11.273 8.53875L16.0655 13.3144C16.1637 13.4124 16.2417 13.5287 16.2948 13.6569C16.348 13.785 16.3754 13.9224 16.3754 14.0611C16.3754 14.1999 16.348 14.3373 16.2948 14.4654C16.2417 14.5935 16.1637 14.7099 16.0655 14.8079C15.8758 15.0091 15.6161 15.1299 15.3399 15.1454Z" fill="black"/>
<path d="M10.395 26.519H3.58594C3.30622 26.519 3.03793 26.4079 2.84014 26.2102C2.64235 26.0124 2.53125 25.7441 2.53125 25.4644C2.53125 25.1846 2.64235 24.9163 2.84014 24.7186C3.03793 24.5208 3.30622 24.4097 3.58594 24.4097H10.395C10.6747 24.4097 10.943 24.5208 11.1408 24.7186C11.3385 24.9163 11.4497 25.1846 11.4497 25.4644C11.4497 25.7441 11.3385 26.0124 11.1408 26.2102C10.943 26.4079 10.6747 26.519 10.395 26.519Z" fill="black"/>
<path d="M49.605 27.1011H42.7959C42.5162 27.1011 42.2479 26.99 42.0501 26.7922C41.8524 26.5944 41.7412 26.3261 41.7412 26.0464C41.7412 25.7667 41.8524 25.4985 42.0501 25.3007C42.2479 25.1029 42.5162 24.9917 42.7959 24.9917H49.605C49.8847 24.9917 50.153 25.1029 50.3508 25.3007C50.5486 25.4985 50.6597 25.7667 50.6597 26.0464C50.6597 26.3261 50.5486 26.5944 50.3508 26.7922C50.153 26.99 49.8847 27.1011 49.605 27.1011Z" fill="black"/>
<path d="M38.2554 15.5589C38.117 15.5599 37.9798 15.5327 37.8521 15.4791C37.7245 15.4254 37.6091 15.3464 37.5129 15.2467C37.4147 15.1487 37.3368 15.0323 37.2836 14.9041C37.2304 14.776 37.2031 14.6387 37.2031 14.5C37.2031 14.3613 37.2304 14.2239 37.2836 14.0957C37.3368 13.9676 37.4147 13.8512 37.5129 13.7533L42.3223 8.94382C42.4204 8.84576 42.5368 8.76803 42.6649 8.71496C42.7931 8.66189 42.9304 8.63452 43.0691 8.63452C43.2077 8.63452 43.345 8.66189 43.4732 8.71496C43.6013 8.76803 43.7177 8.84576 43.8158 8.94382C43.9138 9.04188 43.9916 9.15837 44.0447 9.28649C44.0978 9.41461 44.1251 9.55187 44.1251 9.69055C44.1251 9.82923 44.0978 9.96659 44.0447 10.0947C43.9916 10.2228 43.9138 10.3392 43.8158 10.4373L38.9979 15.2467C38.9018 15.3464 38.7864 15.4254 38.6588 15.4791C38.5311 15.5327 38.3939 15.5599 38.2554 15.5589Z" fill="black"/>
<path d="M34.3076 27.0083C34.0279 27.0083 33.7596 26.8972 33.5618 26.6994C33.364 26.5016 33.2529 26.2333 33.2529 25.9536C33.2507 24.1887 32.5486 22.4967 31.3006 21.2487C30.0526 20.0007 28.3606 19.2986 26.5957 19.2964C26.316 19.2964 26.0477 19.1853 25.85 18.9875C25.6522 18.7897 25.541 18.5214 25.541 18.2417C25.541 17.962 25.6522 17.6938 25.85 17.496C26.0477 17.2982 26.316 17.187 26.5957 17.187C27.7481 17.1881 28.8889 17.4162 29.9531 17.8582C31.0174 18.3003 31.9841 18.9476 32.7981 19.7632C33.6122 20.5788 34.2576 21.5467 34.6975 22.6118C35.1375 23.6768 35.3634 24.8181 35.3623 25.9705C35.3578 26.2473 35.2448 26.5112 35.0475 26.7054C34.8502 26.8995 34.5844 27.0083 34.3076 27.0083Z" fill="black"/>
</svg>
