<svg width="54" height="54" viewBox="0 0 54 54" fill="none" xmlns="http://www.w3.org/2000/svg">
<path d="M8.64844 45.5456C8.49372 45.5453 8.34102 45.5108 8.20128 45.4444C8.02059 45.3587 7.8677 45.2237 7.76024 45.055C7.65279 44.8864 7.59509 44.6909 7.59375 44.4909V12.2006C7.59598 11.2018 7.99431 10.2446 8.70138 9.53915C9.40844 8.83367 10.3665 8.4375 11.3653 8.4375H42.0019C42.9999 8.4375 43.9571 8.83395 44.6628 9.53967C45.3685 10.2454 45.765 11.2025 45.765 12.2006V33.3787C45.765 34.3767 45.3685 35.3339 44.6628 36.0396C43.9571 36.7453 42.9999 37.1418 42.0019 37.1418H19.2206L9.2728 45.3093C9.09575 45.4536 8.87665 45.5365 8.64844 45.5456ZM11.3653 10.5469C10.9178 10.5469 10.4885 10.7246 10.1721 11.0411C9.8556 11.3575 9.67784 11.7868 9.67784 12.2344V42.2972L18.1912 35.3109C18.3807 35.1529 18.6195 35.0663 18.8662 35.0662H41.9766C42.4241 35.0662 42.8534 34.8884 43.1698 34.5719C43.4863 34.2554 43.6641 33.8263 43.6641 33.3787V12.2006C43.6641 11.753 43.4863 11.3238 43.1698 11.0074C42.8534 10.6909 42.4241 10.5131 41.9766 10.5131L11.3653 10.5469Z" fill="black"/>
<path d="M26.7471 25.844C26.6083 25.8451 26.4706 25.8185 26.3422 25.7659C26.2137 25.7133 26.097 25.6357 25.9988 25.5375C25.9007 25.4394 25.823 25.3226 25.7704 25.1942C25.7178 25.0657 25.6913 24.9281 25.6924 24.7893V15.9805C25.6924 15.7007 25.8035 15.4325 26.0013 15.2347C26.1991 15.0369 26.4674 14.9258 26.7471 14.9258C27.0268 14.9258 27.2951 15.0369 27.4929 15.2347C27.6906 15.4325 27.8018 15.7007 27.8018 15.9805V24.7893C27.8018 25.069 27.6906 25.3372 27.4929 25.535C27.2951 25.7328 27.0268 25.844 26.7471 25.844Z" fill="black"/>
<path d="M26.7471 30.9319C26.6083 30.933 26.4706 30.9065 26.3422 30.8539C26.2137 30.8013 26.097 30.7236 25.9988 30.6255C25.9007 30.5273 25.823 30.4106 25.7704 30.2822C25.7178 30.1537 25.6913 30.016 25.6924 29.8772V29.2107C25.6924 28.931 25.8035 28.6627 26.0013 28.4649C26.1991 28.2671 26.4674 28.156 26.7471 28.156C27.0268 28.156 27.2951 28.2671 27.4929 28.4649C27.6906 28.6627 27.8018 28.931 27.8018 29.2107V29.8772C27.8018 30.1569 27.6906 30.4252 27.4929 30.623C27.2951 30.8208 27.0268 30.9319 26.7471 30.9319Z" fill="black"/>
</svg>
