<svg width="54" height="54" viewBox="0 0 54 54" fill="none" xmlns="http://www.w3.org/2000/svg">
<path d="M36.3232 20.5099H16.917C16.6373 20.5099 16.369 20.3987 16.1712 20.2009C15.9734 20.0031 15.8623 19.7349 15.8623 19.4552V17.3626C15.8645 14.7764 16.8929 12.2969 18.7216 10.4682C20.5503 8.63948 23.0299 7.61112 25.6161 7.60889H27.6495C30.2356 7.61112 32.7153 8.63948 34.544 10.4682C36.3727 12.2969 37.401 14.7764 37.4033 17.3626V19.4552C37.4033 19.5958 37.3752 19.735 37.3207 19.8647C37.2661 19.9943 37.1861 20.1118 37.0854 20.21C36.9848 20.3083 36.8655 20.3854 36.7346 20.4369C36.6037 20.4884 36.4639 20.5132 36.3232 20.5099ZM17.9463 18.4005H35.2686V17.3626C35.2663 15.3359 34.4603 13.3928 33.0271 11.9597C31.594 10.5266 29.651 9.72049 27.6242 9.71826H25.5908C23.5634 9.71826 21.619 10.5236 20.1854 11.9572C18.7518 13.3908 17.9463 15.3352 17.9463 17.3626V18.4005Z" fill="black"/>
<path d="M31.6411 42.1523H21.5836C20.0648 42.15 18.6089 41.5458 17.535 40.4719C16.4611 39.398 15.8567 37.942 15.8545 36.4233V23.1089C15.8545 22.8292 15.9657 22.5609 16.1635 22.3631C16.3613 22.1653 16.6295 22.0542 16.9092 22.0542H36.3154C36.5952 22.0542 36.8634 22.1653 37.0612 22.3631C37.259 22.5609 37.3701 22.8292 37.3701 23.1089V36.4233C37.3679 37.942 36.7637 39.398 35.6897 40.4719C34.6158 41.5458 33.1599 42.15 31.6411 42.1523ZM17.947 24.1636V36.4233C17.9425 36.9029 18.0334 37.3785 18.2144 37.8227C18.3953 38.2669 18.6628 38.6706 19.0011 39.0106C19.3395 39.3505 19.7421 39.6198 20.1854 39.8028C20.6287 39.9858 21.104 40.0789 21.5836 40.0767H31.6579C32.6187 40.0767 33.5403 39.6956 34.2205 39.0171C34.9006 38.3385 35.2838 37.4177 35.2861 36.457V24.1974L17.947 24.1636Z" fill="black"/>
<path d="M13.7109 33.9005C13.4312 33.9005 13.1629 33.7893 12.9651 33.5915C12.7673 33.3937 12.6562 33.1255 12.6562 32.8458V23.1089C12.6562 22.8292 12.7673 22.5609 12.9651 22.3631C13.1629 22.1653 13.4312 22.0542 13.7109 22.0542H16.8918C17.1715 22.0542 17.4398 22.1653 17.6376 22.3631C17.8354 22.5609 17.9465 22.8292 17.9465 23.1089C17.9465 23.3886 17.8354 23.6569 17.6376 23.8547C17.4398 24.0525 17.1715 24.1636 16.8918 24.1636H14.7656V32.8458C14.7656 33.1255 14.6544 33.3937 14.4566 33.5915C14.2588 33.7893 13.9907 33.9005 13.7109 33.9005Z" fill="black"/>
<path d="M20.8828 48.2777C20.6031 48.2777 20.3348 48.1666 20.137 47.9688C19.9392 47.7711 19.8281 47.5028 19.8281 47.223V41.0974C19.8281 40.8177 19.9392 40.5495 20.137 40.3517C20.3348 40.1539 20.6031 40.0427 20.8828 40.0427C21.1625 40.0427 21.4307 40.1539 21.6285 40.3517C21.8263 40.5495 21.9375 40.8177 21.9375 41.0974V47.223C21.9375 47.5028 21.8263 47.7711 21.6285 47.9688C21.4307 48.1666 21.1625 48.2777 20.8828 48.2777Z" fill="black"/>
<path d="M20.1317 11.0093C19.968 11.0093 19.8064 10.9712 19.66 10.898C19.5135 10.8248 19.3862 10.7185 19.288 10.5875L16.4107 6.78215C16.2418 6.55837 16.1687 6.27666 16.2074 5.99896C16.2462 5.72126 16.3937 5.47032 16.6175 5.30136C16.8412 5.13241 17.1229 5.05928 17.4006 5.09805C17.6783 5.13682 17.9293 5.2843 18.0982 5.50808L20.9755 9.3134C21.0601 9.42326 21.122 9.54883 21.1577 9.68285C21.1933 9.81687 21.202 9.95662 21.1832 10.094C21.1644 10.2314 21.1183 10.3637 21.0479 10.4831C20.9774 10.6026 20.884 10.7069 20.773 10.79C20.5889 10.9311 20.3637 11.0081 20.1317 11.0093Z" fill="black"/>
<path d="M39.4958 33.9005C39.216 33.9005 38.9477 33.7893 38.75 33.5915C38.5522 33.3937 38.4411 33.1255 38.4411 32.8458V24.1636H36.3232C36.0435 24.1636 35.7752 24.0525 35.5774 23.8547C35.3796 23.6569 35.2686 23.3886 35.2686 23.1089C35.2686 22.8292 35.3796 22.5609 35.5774 22.3631C35.7752 22.1653 36.0435 22.0542 36.3232 22.0542H39.4958C39.7755 22.0542 40.0438 22.1653 40.2416 22.3631C40.4393 22.5609 40.5504 22.8292 40.5504 23.1089V32.8458C40.5504 33.1255 40.4393 33.3937 40.2416 33.5915C40.0438 33.7893 39.7755 33.9005 39.4958 33.9005Z" fill="black"/>
<path d="M32.333 48.2777C32.0533 48.2777 31.785 48.1666 31.5872 47.9688C31.3894 47.7711 31.2783 47.5028 31.2783 47.223V41.0974C31.2783 40.8177 31.3894 40.5495 31.5872 40.3517C31.785 40.1539 32.0533 40.0427 32.333 40.0427C32.6127 40.0427 32.881 40.1539 33.0788 40.3517C33.2766 40.5495 33.3877 40.8177 33.3877 41.0974V47.223C33.3877 47.5028 33.2766 47.7711 33.0788 47.9688C32.881 48.1666 32.6127 48.2777 32.333 48.2777Z" fill="black"/>
<path d="M33.0832 11.0093C32.8513 11.0075 32.6263 10.9305 32.4419 10.7899C32.2194 10.6208 32.0731 10.3703 32.0352 10.0934C31.9972 9.8166 32.0707 9.53608 32.2394 9.31335L35.0828 5.48269C35.2518 5.25891 35.5027 5.11143 35.7804 5.07266C36.0581 5.03389 36.3399 5.10702 36.5636 5.27597C36.7874 5.44493 36.9349 5.69587 36.9737 5.97357C37.0124 6.25127 36.9393 6.53298 36.7703 6.75676L33.8931 10.5621C33.801 10.6933 33.6802 10.8017 33.5399 10.8792C33.3995 10.9567 33.2433 11.0012 33.0832 11.0093Z" fill="black"/>
</svg>
