<svg width="54" height="54" viewBox="0 0 54 54" fill="none" xmlns="http://www.w3.org/2000/svg">
<path fill-rule="evenodd" clip-rule="evenodd" d="M28.1926 9.09324C30.7092 5.71326 34.2072 5.69531 34.2072 5.69531C34.2072 5.69531 34.7276 8.87333 32.228 11.934C29.5591 15.2037 26.5247 14.6678 26.5247 14.6678C26.5247 14.6678 25.9554 12.0982 28.1926 9.09324Z" fill="#020202"/>
<path fill-rule="evenodd" clip-rule="evenodd" d="M26.8465 16.895C28.1413 16.895 30.5434 15.0813 33.6709 15.0813C39.0538 15.0813 41.1716 18.9851 41.1716 18.9851C41.1716 18.9851 37.0299 21.1424 37.0299 26.3791C37.0299 32.2857 42.1889 34.3212 42.1889 34.3212C42.1889 34.3212 38.5814 44.6663 33.7099 44.6663C31.472 44.6663 29.7324 43.1276 27.375 43.1276C24.9723 43.1276 22.5878 44.7214 21.0351 44.7214C16.5864 44.7214 10.9688 34.9085 10.9688 27.0202C10.9688 19.2627 15.7264 15.1884 20.1883 15.1884C23.0861 15.1903 25.3366 16.895 26.8465 16.895Z" fill="#020202"/>
</svg>
