<svg width="54" height="54" viewBox="0 0 54 54" fill="none" xmlns="http://www.w3.org/2000/svg">
<path d="M25.9563 38.3906C23.5086 38.3923 21.0938 37.8261 18.902 36.7363C16.7102 35.6465 14.8011 34.063 13.325 32.1103C11.8489 30.1576 10.8462 27.8891 10.3955 25.4832C9.94479 23.0772 10.0585 20.5995 10.7277 18.245C11.397 15.8904 12.6034 13.7234 14.2522 11.9142C15.901 10.105 17.9471 8.70297 20.2295 7.81859C22.512 6.93422 24.9685 6.59159 27.4058 6.81757C29.8432 7.04355 32.1948 7.83207 34.2757 9.12099C34.5084 9.26602 34.676 9.4953 34.7436 9.76101C34.8112 10.0267 34.7736 10.3083 34.6386 10.5469L28.0573 21.9375H40.7135C40.8549 21.9374 40.9949 21.9658 41.1251 22.0209C41.2553 22.076 41.3731 22.1567 41.4715 22.2582C41.5699 22.3598 41.6469 22.48 41.6979 22.6119C41.7488 22.7438 41.7727 22.8847 41.7682 23.026C41.6731 27.1486 39.9628 31.0689 37.0053 33.9427C34.0479 36.8165 30.08 38.4138 25.9563 38.3906ZM25.9563 8.85938C23.3077 8.86011 20.716 9.628 18.4944 11.0702C16.2729 12.5124 14.5166 14.5672 13.4379 16.9862C12.3592 19.4053 12.0042 22.0849 12.4159 24.7013C12.8275 27.3178 13.9882 29.759 15.7576 31.7299C17.527 33.7008 19.8295 35.117 22.3866 35.8074C24.9437 36.4977 27.646 36.4326 30.1669 35.62C32.6877 34.8074 34.9193 33.2819 36.5918 31.2281C38.2643 29.1743 39.3061 26.6801 39.5914 24.0469H26.2264C26.0419 24.0478 25.8603 23.9999 25.7003 23.908C25.5403 23.8162 25.4073 23.6836 25.3151 23.5238C25.2241 23.3629 25.1763 23.1812 25.1763 22.9964C25.1763 22.8116 25.2241 22.6299 25.3151 22.4691L32.276 10.4118C30.3252 9.39312 28.1572 8.86056 25.9563 8.85938Z" fill="black"/>
<path d="M17.5186 47.6719C16.559 47.6719 15.6211 47.3874 14.8232 46.8543C14.0254 46.3212 13.4035 45.5634 13.0363 44.6769C12.6691 43.7904 12.573 42.815 12.7602 41.8739C12.9474 40.9328 13.4095 40.0682 14.088 39.3897C14.7665 38.7112 15.631 38.2492 16.5721 38.062C17.5132 37.8748 18.4887 37.9709 19.3752 38.3381C20.2617 38.7053 21.0194 39.327 21.5525 40.1249C22.0856 40.9227 22.3701 41.8608 22.3701 42.8203C22.3701 44.107 21.859 45.3411 20.9492 46.2509C20.0393 47.1608 18.8053 47.6719 17.5186 47.6719ZM17.5186 40.0781C16.9762 40.0781 16.4461 40.239 15.9951 40.5403C15.5442 40.8416 15.1927 41.2698 14.9851 41.7709C14.7776 42.2719 14.7233 42.8233 14.8291 43.3553C14.9349 43.8872 15.196 44.3758 15.5795 44.7593C15.963 45.1428 16.4517 45.404 16.9836 45.5098C17.5155 45.6156 18.0669 45.5613 18.568 45.3537C19.0691 45.1462 19.4973 44.7948 19.7986 44.3438C20.0999 43.8929 20.2607 43.3627 20.2607 42.8203C20.2585 42.0937 19.9689 41.3975 19.4551 40.8838C18.9413 40.37 18.2451 40.0803 17.5186 40.0781Z" fill="black"/>
<path d="M34.3936 47.6719C33.434 47.6719 32.4961 47.3874 31.6982 46.8543C30.9004 46.3212 30.2785 45.5634 29.9113 44.6769C29.5441 43.7904 29.448 42.815 29.6352 41.8739C29.8224 40.9328 30.2845 40.0682 30.963 39.3897C31.6415 38.7112 32.506 38.2492 33.4471 38.062C34.3882 37.8748 35.3637 37.9709 36.2502 38.3381C37.1367 38.7053 37.8944 39.327 38.4275 40.1249C38.9606 40.9227 39.2451 41.8608 39.2451 42.8203C39.2451 44.107 38.734 45.3411 37.8242 46.2509C36.9143 47.1608 35.6803 47.6719 34.3936 47.6719ZM34.3936 40.0781C33.8512 40.0781 33.3211 40.239 32.8701 40.5403C32.4192 40.8416 32.0677 41.2698 31.8601 41.7709C31.6526 42.2719 31.5983 42.8233 31.7041 43.3553C31.8099 43.8872 32.071 44.3758 32.4545 44.7593C32.838 45.1428 33.3267 45.404 33.8586 45.5098C34.3905 45.6156 34.9419 45.5613 35.443 45.3537C35.9441 45.1462 36.3723 44.7948 36.6736 44.3438C36.9749 43.8929 37.1357 43.3627 37.1357 42.8203C37.1335 42.0937 36.8439 41.3975 36.3301 40.8838C35.8163 40.37 35.1201 40.0803 34.3936 40.0781Z" fill="black"/>
<path d="M40.7131 24.0469C40.5362 24.05 40.3615 24.0064 40.2069 23.9203C39.9639 23.7851 39.7842 23.5595 39.7067 23.2924C39.6293 23.0254 39.6605 22.7386 39.7935 22.4944L42.3247 17.8453C42.4144 17.6796 42.5472 17.5411 42.7091 17.4446C42.871 17.348 43.0559 17.297 43.2444 17.2969H46.6194C46.8991 17.2969 47.1674 17.408 47.3652 17.6058C47.563 17.8036 47.6741 18.0718 47.6741 18.3516C47.6741 18.6313 47.563 18.8996 47.3652 19.0974C47.1674 19.2952 46.8991 19.4062 46.6194 19.4062H43.8687L41.6329 23.4984C41.5425 23.6636 41.4095 23.8016 41.2478 23.898C41.0861 23.9945 40.9014 24.0459 40.7131 24.0469Z" fill="black"/>
</svg>
