<svg width="54" height="54" viewBox="0 0 54 54" fill="none" xmlns="http://www.w3.org/2000/svg">
<path d="M31.6054 42.1855C31.2903 42.1744 30.9902 42.0483 30.7617 41.8311L16.4179 27.9092C16.2957 27.7919 16.1984 27.6511 16.1319 27.4952C16.0655 27.3393 16.0312 27.1717 16.0312 27.0023C16.0312 26.8328 16.0655 26.6651 16.1319 26.5092C16.1984 26.3533 16.2957 26.2125 16.4179 26.0952L30.7617 12.1733C30.8808 12.0569 31.0216 11.9652 31.1762 11.9033C31.3308 11.8414 31.496 11.8106 31.6625 11.8126C31.829 11.8145 31.9935 11.8492 32.1465 11.9148C32.2996 11.9803 32.4383 12.0753 32.5546 12.1944C32.671 12.3135 32.7627 12.4544 32.8246 12.609C32.8865 12.7635 32.9174 12.9288 32.9154 13.0953C32.9135 13.2618 32.8787 13.4262 32.8132 13.5793C32.7477 13.7324 32.6526 13.871 32.5335 13.9874L19.1432 27.0065L32.5335 40.017C32.7705 40.2543 32.9037 40.5761 32.9037 40.9115C32.9037 41.2468 32.7705 41.5686 32.5335 41.8059C32.4134 41.9299 32.269 42.0276 32.1093 42.0929C31.9495 42.1583 31.7779 42.1898 31.6054 42.1855Z" fill="black"/>
</svg>
