<svg width="54" height="54" viewBox="0 0 54 54" fill="none" xmlns="http://www.w3.org/2000/svg">
<path d="M26.6455 16.875C25.3105 16.875 24.0054 16.4791 22.8954 15.7374C21.7854 14.9957 20.9203 13.9415 20.4094 12.7081C19.8985 11.4747 19.7647 10.1175 20.0252 8.80812C20.2856 7.49875 20.9285 6.29607 21.8725 5.35206C22.8165 4.40806 24.0192 3.76516 25.3286 3.50471C26.638 3.24426 27.9952 3.3779 29.2286 3.88879C30.462 4.39968 31.5162 5.26489 32.2579 6.37492C32.9996 7.48496 33.3955 8.79001 33.3955 10.125C33.3955 11.9152 32.6844 13.6321 31.4185 14.898C30.1526 16.1639 28.4357 16.875 26.6455 16.875ZM26.6455 5.55188C25.7344 5.55188 24.8436 5.82206 24.086 6.32827C23.3285 6.83448 22.738 7.55393 22.3893 8.39572C22.0406 9.23752 21.9494 10.1638 22.1272 11.0575C22.3049 11.9511 22.7437 12.772 23.3879 13.4163C24.0322 14.0606 24.8531 14.4993 25.7468 14.6771C26.6404 14.8548 27.5667 14.7636 28.4085 14.415C29.2503 14.0663 29.9698 13.4758 30.476 12.7182C30.9822 11.9606 31.2524 11.0699 31.2524 10.1587C31.2524 8.9369 30.7671 7.76519 29.9031 6.90124C29.0391 6.03728 27.8673 5.55188 26.6455 5.55188Z" fill="black"/>
<path d="M31.9697 50.3636C31.0507 50.3638 30.1623 50.0344 29.4656 49.4352C28.7689 48.8361 28.3101 48.0069 28.1728 47.0983L26.6456 37.0407L25.1268 47.0983C25.0515 47.5969 24.8787 48.0757 24.6183 48.5076C24.3578 48.9394 24.0149 49.3157 23.6091 49.615C23.2032 49.9143 22.7424 50.1307 22.2529 50.2519C21.7634 50.3731 21.2549 50.3967 20.7563 50.3213C20.2577 50.246 19.7788 50.0733 19.347 49.8128C18.9152 49.5524 18.5388 49.2094 18.2396 48.8036C17.9403 48.3977 17.7238 47.9369 17.6026 47.4474C17.4814 46.9579 17.4578 46.4494 17.5331 45.9508L19.5666 32.4508C19.6425 31.9445 19.71 31.607 19.7606 31.3117C19.89 30.7019 19.9439 30.0784 19.921 29.4554V25.8189H13.171C12.1394 25.8189 11.15 25.4091 10.4205 24.6797C9.69104 23.9502 9.28125 22.9608 9.28125 21.9292C9.28125 20.8976 9.69104 19.9083 10.4205 19.1788C11.15 18.4493 12.1394 18.0396 13.171 18.0396H40.1287C41.1604 18.0396 42.1497 18.4493 42.8792 19.1788C43.6086 19.9083 44.0184 20.8976 44.0184 21.9292C44.0184 22.9608 43.6086 23.9502 42.8792 24.6797C42.1497 25.4091 41.1604 25.8189 40.1287 25.8189H33.3787V29.4554C33.357 30.0784 33.4109 30.7017 33.5391 31.3117C33.5897 31.5902 33.6572 31.9361 33.7332 32.4508L35.7665 45.9508C35.8431 46.4495 35.8205 46.9586 35.6998 47.4485C35.5791 47.9385 35.3629 48.3998 35.0634 48.8059C34.7639 49.2121 34.387 49.555 33.9546 49.8151C33.5222 50.0752 33.0426 50.2472 32.5434 50.3213C32.3537 50.3517 32.1618 50.3659 31.9697 50.3636ZM26.6456 33.3366C27.084 33.3393 27.5072 33.4979 27.8395 33.7839C28.1718 34.0698 28.3917 34.4646 28.4597 34.8977L30.2569 46.7861C30.3276 47.2397 30.5749 47.6469 30.9448 47.9188C31.3147 48.1907 31.7772 48.3052 32.2313 48.2373C32.6849 48.1666 33.0921 47.9193 33.364 47.5494C33.6359 47.1795 33.7504 46.717 33.6825 46.2629L31.6407 32.7629C31.5732 32.2904 31.514 31.9192 31.4634 31.6998C31.3135 30.9615 31.2484 30.2085 31.2694 29.4554V24.7642C31.2694 24.4845 31.3805 24.2162 31.5783 24.0184C31.7761 23.8206 32.0443 23.7095 32.3241 23.7095H40.1287C40.6009 23.7095 41.0537 23.5219 41.3876 23.1881C41.7215 22.8542 41.909 22.4014 41.909 21.9292C41.909 21.4571 41.7215 21.0042 41.3876 20.6703C41.0537 20.3364 40.6009 20.1489 40.1287 20.1489H13.171C12.6988 20.1489 12.2459 20.3364 11.912 20.6703C11.5782 21.0042 11.3907 21.4571 11.3907 21.9292C11.3907 22.4014 11.5782 22.8542 11.912 23.1881C12.2459 23.5219 12.6988 23.7095 13.171 23.7095H20.9757C21.2554 23.7095 21.5236 23.8206 21.7214 24.0184C21.9192 24.2162 22.0304 24.4845 22.0304 24.7642V29.4554C22.0508 30.2113 21.9857 30.967 21.8362 31.7083C21.7856 31.9698 21.7265 32.2904 21.659 32.7629L19.6172 46.2629C19.5494 46.717 19.6638 47.1795 19.9357 47.5494C20.2076 47.9193 20.6149 48.1666 21.0685 48.2373C21.5225 48.3052 21.985 48.1907 22.3549 47.9188C22.7248 47.6469 22.9721 47.2397 23.0428 46.7861L24.84 34.8977C24.9078 34.466 25.1264 34.0723 25.457 33.7865C25.7875 33.5008 26.2087 33.3413 26.6456 33.3366Z" fill="black"/>
</svg>
