<svg width="54" height="54" viewBox="0 0 54 54" fill="none" xmlns="http://www.w3.org/2000/svg">
<path d="M47.25 26.9409C47.25 26.7291 47.2369 26.5195 47.2181 26.3109C47.2125 26.25 47.2064 26.1905 47.1993 26.13C47.1796 25.9631 47.1543 25.7972 47.1229 25.6327C47.1144 25.59 47.1093 25.5464 47.1003 25.5047C47.0605 25.3158 47.0112 25.1297 46.9558 24.9459C46.9357 24.8775 46.9127 24.81 46.8902 24.742C46.8456 24.6089 46.7977 24.4777 46.7452 24.3483C46.7213 24.2892 46.6997 24.2292 46.6744 24.1711C46.5993 23.9967 46.5163 23.8261 46.4276 23.6588C46.4009 23.6095 46.3727 23.5613 46.3446 23.5125C46.2686 23.377 46.1874 23.2439 46.1015 23.1136C46.0743 23.0709 46.0471 23.0287 46.019 22.987C45.9031 22.8188 45.7811 22.6547 45.6516 22.4963C45.6479 22.492 45.6437 22.4878 45.6408 22.4841C45.5109 22.327 45.373 22.1775 45.2299 22.0322C45.2074 22.0102 45.1858 21.9881 45.1637 21.9666C44.8644 21.6708 44.5379 21.4008 44.1865 21.1608C44.1635 21.1448 44.1396 21.1303 44.1161 21.1139C43.9613 21.0113 43.8023 20.9152 43.6386 20.8242C43.6104 20.8088 43.5827 20.7919 43.5541 20.7769C43.5278 20.7628 43.5034 20.7469 43.4772 20.7328C43.9402 19.823 44.1823 18.8184 44.1823 17.7806C44.1823 14.1825 41.2548 11.2542 37.6542 11.2495C37.095 8.19609 34.4134 5.90625 31.2265 5.90625C29.6727 5.90625 28.1743 6.46922 27 7.46391C25.8253 6.46922 24.3273 5.90625 22.7735 5.90625C19.5866 5.90625 16.905 8.19609 16.3449 11.2514C12.7447 11.2561 9.81724 14.1844 9.81724 17.7825C9.81724 18.8203 10.0589 19.8244 10.5224 20.7347C10.4961 20.7483 10.4717 20.7642 10.4454 20.7788C10.4163 20.7933 10.3891 20.8102 10.3605 20.8261C10.1972 20.917 10.0377 21.0131 9.88339 21.1158C9.85994 21.1317 9.83601 21.1463 9.81302 21.1627C9.46117 21.4027 9.13511 21.6727 8.83533 21.9684C8.81328 21.99 8.7917 22.012 8.76965 22.0341C8.62656 22.1794 8.48817 22.3289 8.35868 22.4859C8.35493 22.4902 8.35118 22.4944 8.34836 22.4981C8.21794 22.6566 8.09643 22.8206 7.98056 22.9889C7.95194 23.0306 7.9252 23.0728 7.89752 23.1155C7.81213 23.2453 7.73144 23.3789 7.65497 23.5144C7.62682 23.5631 7.59821 23.6105 7.57194 23.6606C7.48327 23.8275 7.40023 23.9986 7.3247 24.173C7.29936 24.2311 7.27731 24.2906 7.2548 24.3492C7.20272 24.4786 7.15393 24.6108 7.10936 24.7439C7.08684 24.8119 7.06386 24.8789 7.04321 24.9478C6.98879 25.132 6.93906 25.3177 6.89919 25.5066C6.89027 25.5487 6.88464 25.5923 6.8762 25.6345C6.84524 25.7991 6.8199 25.9645 6.8002 26.1319C6.7941 26.1905 6.78753 26.25 6.7819 26.3109C6.76267 26.5191 6.75 26.7291 6.75 26.9409C6.75 29.4131 8.05187 31.6758 10.1334 32.9297C9.64413 33.8592 9.38939 34.8905 9.38939 35.9569C9.38939 39.4833 12.2014 42.3661 15.7026 42.4842C16.115 45.6445 18.8285 48.0938 22.1012 48.0938C24.0205 48.0938 25.7272 47.5083 27 46.4367C28.2732 47.5083 29.98 48.0938 31.8983 48.0938C35.172 48.0938 37.8845 45.6445 38.2969 42.4842C41.7986 42.3661 44.6106 39.4837 44.6106 35.9569C44.6106 34.8905 44.3559 33.8592 43.867 32.9297C45.9481 31.6758 47.25 29.4131 47.25 26.9409ZM26.1884 16.3411C25.586 16.7691 24.6238 16.9275 23.6339 16.7442C22.3236 16.5014 21.2788 15.7523 20.8392 14.7398C20.661 14.3287 20.1834 14.1408 19.771 14.3189C19.36 14.497 19.1714 14.9752 19.3497 15.3863C20.0046 16.8947 21.496 17.9981 23.3384 18.3403C23.709 18.4087 24.0773 18.4425 24.4366 18.4425C25.0606 18.4425 25.6569 18.3408 26.1889 18.1477V44.992C25.1938 45.9483 23.7559 46.4719 22.1017 46.4719C19.4435 46.4719 17.2789 44.3128 17.2733 41.6573C17.2733 41.6541 17.2742 41.6508 17.2742 41.6475C17.2742 40.3847 17.7523 39.2892 18.6559 38.4806C19.543 37.6875 20.7665 37.2502 22.1026 37.2502C22.5511 37.2502 22.9143 36.8873 22.9143 36.4392C22.9143 35.9916 22.5511 35.6283 22.1026 35.6283C21.3544 35.6283 20.6328 35.7427 19.9554 35.9513C20.1618 34.6566 19.9849 33.3108 19.4037 32.1155C19.2085 31.7123 18.722 31.5445 18.3185 31.74C17.9151 31.9359 17.7471 32.4206 17.9428 32.8242C18.57 34.1152 18.5752 35.6414 17.9756 36.9459C17.8372 37.05 17.7012 37.1569 17.5726 37.2722C16.5274 38.2064 15.8842 39.4594 15.7059 40.8558C13.0994 40.7395 11.0131 38.5908 11.0131 35.9583C11.0131 34.9209 11.3344 33.9286 11.9415 33.0886L12.5326 32.272L11.6075 31.8698C9.64272 31.0158 8.37323 29.0817 8.37323 26.9423C8.37323 26.7764 8.38308 26.6119 8.39856 26.4488C8.40372 26.3939 8.41123 26.3395 8.4178 26.2847C8.43093 26.1773 8.44735 26.0705 8.46659 25.965C8.47832 25.9031 8.49004 25.8408 8.50318 25.7798C8.52664 25.6758 8.55385 25.5745 8.58293 25.4728C8.59795 25.4194 8.61108 25.3655 8.62797 25.3125C8.67395 25.1686 8.72555 25.028 8.78326 24.8897C8.80484 24.8377 8.83017 24.7866 8.85316 24.7355C8.89585 24.6412 8.93995 24.548 8.9878 24.4566C9.01595 24.4036 9.04504 24.3511 9.07506 24.2986C9.12761 24.2053 9.18343 24.1139 9.24161 24.0244C9.26835 23.9831 9.29415 23.9414 9.3223 23.9011C9.50526 23.6358 9.71028 23.3873 9.93687 23.1595C9.95236 23.1436 9.96925 23.1286 9.98567 23.1127C10.0856 23.0142 10.1897 22.92 10.2967 22.8295C10.322 22.8084 10.3469 22.7883 10.3722 22.7677C10.4787 22.6809 10.5885 22.5994 10.7011 22.5216C10.7236 22.5066 10.7457 22.4902 10.7682 22.4742C11.037 22.2947 11.3232 22.1395 11.623 22.0097C11.6689 21.99 11.7163 21.9727 11.7632 21.9544C12.3788 21.7087 13.0477 21.5695 13.7496 21.5695C15.5586 21.5695 17.095 22.4559 18.0615 24.0258C17.0716 24.5362 16.2004 25.2858 15.5351 26.2388C15.278 26.6058 15.3686 27.1116 15.7364 27.3684C15.8781 27.4669 16.0399 27.5142 16.2004 27.5142C16.4565 27.5142 16.7089 27.3933 16.8666 27.1673C18.0174 25.5192 19.9727 24.6595 21.9633 24.9211C22.4066 24.9797 22.8157 24.667 22.8744 24.2231C22.933 23.7792 22.6201 23.3714 22.1758 23.3128C21.299 23.197 20.4297 23.2519 19.604 23.4525C18.3641 21.2475 16.2182 19.9477 13.7496 19.9477C13.1664 19.9477 12.6025 20.0273 12.0602 20.1623C11.6558 19.4367 11.4405 18.6258 11.4405 17.7834C11.4405 15.0773 13.644 12.8747 16.3533 12.8747C16.5499 12.8747 16.7483 12.8873 16.959 12.9136L17.8203 13.0205L17.8691 12.1547C18.0164 9.56156 20.1702 7.52953 22.773 7.52953C24.0472 7.52953 25.275 8.02922 26.1874 8.90953V16.3411H26.1884ZM42.392 31.8684L41.4669 32.2706L42.058 33.0872C42.666 33.9272 42.9864 34.9195 42.9864 35.9569C42.9864 38.5875 40.9039 40.7344 38.3007 40.8539C38.0891 39.1533 37.2052 37.6045 35.8536 36.5545C36.4072 35.7872 36.7966 34.898 36.9674 33.9403C37.0457 33.4992 36.7516 33.0778 36.3101 32.9991C35.8682 32.9212 35.4474 33.2147 35.3681 33.6553C35.0265 35.572 33.5159 37.1269 31.6084 37.5253C31.1688 37.6167 30.8882 38.047 30.9797 38.4853C31.0599 38.8678 31.3973 39.1312 31.773 39.1312C31.8279 39.1312 31.8842 39.1256 31.9401 39.1139C32.9858 38.8955 33.94 38.4141 34.7361 37.7484C35.9747 38.6503 36.7272 40.0955 36.7272 41.6456V41.6503C36.7244 44.3086 34.5588 46.4709 31.8978 46.4709C30.2446 46.4709 28.8062 45.9473 27.8111 44.9911V29.3198C28.1804 29.333 28.6457 29.3447 29.1365 29.3447C29.7661 29.3447 30.4318 29.325 30.983 29.265C31.1519 30.0042 31.4118 30.6895 31.7651 31.1747C31.9236 31.3931 32.1713 31.5089 32.4223 31.5089C32.5879 31.5089 32.7554 31.4587 32.899 31.3542C33.2616 31.0903 33.3418 30.5831 33.0787 30.2208C32.3773 29.2556 32.2145 26.9034 32.5223 26.1366C32.6888 25.7213 32.4875 25.2483 32.0709 25.0819C31.6548 24.9159 31.1819 25.117 31.0149 25.5328C30.809 26.0466 30.7287 26.8237 30.7667 27.6591C29.9941 27.7378 28.7776 27.7308 27.8111 27.6961V16.7053C27.8111 16.7048 27.8111 16.7048 27.8111 16.7048V8.90859C28.7232 8.02828 29.9518 7.52859 31.2256 7.52859C33.5905 7.52859 35.5787 9.20813 36.0343 11.4605C34.7253 11.7928 33.5365 12.5194 32.6456 13.5759C32.3567 13.9181 32.4003 14.43 32.7432 14.7188C32.8952 14.8472 33.081 14.9095 33.2658 14.9095C33.4967 14.9095 33.7265 14.8116 33.887 14.6217C34.6958 13.6627 35.8278 13.0594 37.0565 12.9122C37.2606 12.8873 37.4539 12.8742 37.6457 12.8742C40.3536 12.8742 42.5581 15.0764 42.5581 17.783C42.5581 18.6253 42.3428 19.4362 41.9384 20.1619C41.3965 20.0269 40.8326 19.9472 40.249 19.9472C39.1118 19.9472 38.0056 20.2237 37.0096 20.745C36.3434 20.1136 35.5492 19.6083 34.6545 19.2722C34.2337 19.1123 33.766 19.3261 33.6088 19.7466C33.4512 20.1661 33.6632 20.6334 34.084 20.7914C35.9667 21.4983 37.284 23.1773 37.5224 25.1737C37.5716 25.5863 37.9225 25.8886 38.3279 25.8886C38.3598 25.8886 38.3926 25.8867 38.4255 25.883C38.8707 25.83 39.1888 25.4259 39.1353 24.9811C39.0072 23.9062 38.6352 22.9041 38.0731 22.0303C38.7543 21.7289 39.4923 21.5695 40.2495 21.5695C40.9513 21.5695 41.6208 21.7087 42.2358 21.9544C42.2827 21.9727 42.3301 21.99 42.3761 22.0097C42.6759 22.1395 42.9621 22.2947 43.2309 22.4742C43.2534 22.4897 43.275 22.5061 43.298 22.5216C43.4105 22.5994 43.5208 22.6814 43.6264 22.7677C43.6522 22.7883 43.677 22.8084 43.7024 22.8295C43.8098 22.9195 43.913 23.0142 44.0134 23.1127C44.0289 23.1281 44.0458 23.1431 44.0617 23.1595C44.2883 23.3873 44.4938 23.6358 44.6768 23.9011C44.7044 23.9414 44.7307 23.9831 44.7575 24.0244C44.8156 24.1139 44.8715 24.2053 44.924 24.2986C44.9536 24.3511 44.9831 24.4036 45.0113 24.4566C45.0591 24.5475 45.1032 24.6412 45.1459 24.7355C45.1694 24.7866 45.1947 24.8377 45.2163 24.8897C45.2735 25.028 45.3251 25.1691 45.3711 25.3125C45.388 25.365 45.4011 25.4194 45.4161 25.4728C45.4457 25.5745 45.4724 25.6763 45.4954 25.7798C45.509 25.8408 45.5207 25.9031 45.5325 25.965C45.5517 26.0705 45.5677 26.1769 45.5813 26.2847C45.5883 26.3391 45.5958 26.3934 45.6005 26.4488C45.6155 26.6119 45.6263 26.7759 45.6263 26.9423C45.6263 29.0803 44.3568 31.0139 42.392 31.8684Z" fill="black"/>
</svg>
