<svg width="54" height="54" viewBox="0 0 54 54" fill="none" xmlns="http://www.w3.org/2000/svg">
<path d="M46.1953 45.2672H7.83842C6.8791 45.265 5.95971 44.8829 5.28137 44.2046C4.60303 43.5263 4.22098 42.6068 4.21875 41.6475V18.0225C4.21875 17.0625 4.60007 16.1418 5.2789 15.463C5.95772 14.7842 6.87842 14.4029 7.83842 14.4029H17.1197L20.7393 9.69468C20.8389 9.56573 20.9668 9.46139 21.1131 9.38971C21.2594 9.31802 21.4202 9.28091 21.5831 9.28125H32.5181C32.681 9.28091 32.8418 9.31802 32.9881 9.38971C33.1344 9.46139 33.2623 9.56573 33.3619 9.69468L36.9815 14.4029H46.2628C47.2228 14.4029 48.1435 14.7842 48.8223 15.463C49.5011 16.1418 49.8825 17.0625 49.8825 18.0225V41.6475C49.8814 42.1282 49.7848 42.604 49.5983 43.0471C49.4118 43.4902 49.1391 43.8918 48.796 44.2286C48.453 44.5654 48.0464 44.8307 47.5999 45.009C47.1535 45.1873 46.676 45.275 46.1953 45.2672ZM7.83842 16.5207C7.43786 16.5207 7.05368 16.6798 6.77044 16.9631C6.48721 17.2463 6.32812 17.6304 6.32812 18.0309V41.6559C6.32812 42.0565 6.48721 42.4407 6.77044 42.7239C7.05368 43.0072 7.43786 43.1663 7.83842 43.1663H46.1953C46.5959 43.1663 46.98 43.0072 47.2632 42.7239C47.5465 42.4407 47.7056 42.0565 47.7056 41.6559V18.0309C47.7056 17.6304 47.5465 17.2463 47.2632 16.9631C46.98 16.6798 46.5959 16.5207 46.1953 16.5207H36.4078C36.2448 16.5217 36.0837 16.4848 35.9373 16.4131C35.7909 16.3413 35.6632 16.2367 35.564 16.1073L31.9444 11.3991H22.0725L18.4528 16.1073C18.3532 16.2362 18.2254 16.3406 18.0791 16.4122C17.9328 16.4839 17.772 16.521 17.6091 16.5207H7.83842Z" fill="black"/>
<path d="M27.017 37.4035C25.4393 37.4052 23.8965 36.9387 22.584 36.0632C21.2715 35.1877 20.2483 33.9425 19.6437 32.4852C19.0392 31.0279 18.8806 29.4241 19.188 27.8766C19.4953 26.3291 20.2549 24.9076 21.3705 23.7919C22.4861 22.6763 23.9076 21.9167 25.4551 21.6093C27.0026 21.302 28.6065 21.4606 30.0638 22.0651C31.5211 22.6696 32.7663 23.6929 33.6418 25.0055C34.5172 26.318 34.9837 27.8607 34.982 29.4384C34.9798 31.5502 34.1399 33.5749 32.6467 35.0681C31.1534 36.5614 29.1288 37.4013 27.017 37.4035ZM27.017 23.5744C25.8586 23.5728 24.7258 23.9142 23.7613 24.5557C22.7968 25.1972 22.0438 26.11 21.5975 27.1789C21.1511 28.2478 21.0314 29.4249 21.2533 30.5618C21.4752 31.6987 22.0288 32.7445 22.8444 33.5671C23.6599 34.3897 24.7009 34.9523 25.8358 35.184C26.9708 35.4157 28.1489 35.3061 29.2216 34.8689C30.2944 34.4318 31.2135 33.6868 31.8633 32.7278C32.5131 31.7689 32.8643 30.639 32.8726 29.4807C32.8727 27.923 32.2574 26.4283 31.1607 25.3221C30.064 24.2159 28.5746 23.5878 27.017 23.5744Z" fill="black"/>
</svg>
