<svg width="54" height="54" viewBox="0 0 54 54" fill="none" xmlns="http://www.w3.org/2000/svg">
<path d="M10.3584 19.6172C10.0787 19.6172 9.81044 19.506 9.61265 19.3082C9.41486 19.1104 9.30371 18.8422 9.30371 18.5625V10.3359C9.30371 10.0562 9.41486 9.78793 9.61265 9.59014C9.81044 9.39235 10.0787 9.28125 10.3584 9.28125H18.585C18.8647 9.28125 19.133 9.39235 19.3308 9.59014C19.5286 9.78793 19.6396 10.0562 19.6396 10.3359C19.6396 10.6157 19.5286 10.8838 19.3308 11.0816C19.133 11.2794 18.8647 11.3906 18.585 11.3906H11.4131V18.5625C11.4131 18.8422 11.302 19.1104 11.1042 19.3082C10.9064 19.506 10.6381 19.6172 10.3584 19.6172Z" fill="black"/>
<path d="M21.7068 22.7391C21.4255 22.7359 21.1564 22.6241 20.9558 22.4269L9.59055 11.0868C9.49249 10.9888 9.41471 10.8724 9.36164 10.7443C9.30857 10.6161 9.28125 10.4789 9.28125 10.3402C9.28125 10.2015 9.30857 10.0642 9.36164 9.93605C9.41471 9.80792 9.49249 9.69154 9.59055 9.59348C9.68861 9.49542 9.80505 9.41759 9.93317 9.36452C10.0613 9.31145 10.1986 9.28418 10.3373 9.28418C10.476 9.28418 10.6133 9.31145 10.7414 9.36452C10.8695 9.41759 10.9859 9.49542 11.084 9.59348L22.424 20.9334C22.569 21.082 22.6674 21.2698 22.7069 21.4736C22.7465 21.6775 22.7255 21.8884 22.6465 22.0804C22.5676 22.2724 22.4341 22.4371 22.2626 22.5542C22.0911 22.6712 21.8891 22.7355 21.6815 22.7391H21.7068Z" fill="black"/>
<path d="M18.585 44.6597H10.3584C10.0787 44.6597 9.81044 44.5486 9.61265 44.3508C9.41486 44.153 9.30371 43.8847 9.30371 43.605V35.3784C9.30371 35.0987 9.41486 34.8304 9.61265 34.6326C9.81044 34.4348 10.0787 34.3237 10.3584 34.3237C10.6381 34.3237 10.9064 34.4348 11.1042 34.6326C11.302 34.8304 11.4131 35.0987 11.4131 35.3784V42.5503H18.585C18.8647 42.5503 19.133 42.6614 19.3308 42.8592C19.5286 43.057 19.6396 43.3253 19.6396 43.605C19.6396 43.8847 19.5286 44.153 19.3308 44.3508C19.133 44.5486 18.8647 44.6597 18.585 44.6597Z" fill="black"/>
<path d="M10.358 44.6597C10.2195 44.6608 10.0823 44.6337 9.95465 44.58C9.827 44.5263 9.71165 44.4472 9.61553 44.3475C9.51731 44.2496 9.43938 44.1332 9.38621 44.0051C9.33304 43.8769 9.30566 43.7395 9.30566 43.6008C9.30566 43.4621 9.33304 43.3248 9.38621 43.1966C9.43938 43.0685 9.51731 42.9521 9.61553 42.8541L20.9555 31.5141C21.0535 31.4161 21.17 31.3382 21.2981 31.2852C21.4262 31.2321 21.5635 31.2048 21.7022 31.2048C21.8409 31.2048 21.9782 31.2321 22.1064 31.2852C22.2345 31.3382 22.3509 31.4161 22.4489 31.5141C22.547 31.6122 22.6248 31.7286 22.6778 31.8567C22.7309 31.9848 22.7582 32.1222 22.7582 32.2609C22.7582 32.3995 22.7309 32.5368 22.6778 32.6649C22.6248 32.793 22.547 32.9095 22.4489 33.0076L11.1089 44.3475C11.0107 44.4467 10.8937 44.5254 10.7648 44.579C10.6359 44.6326 10.4976 44.66 10.358 44.6597Z" fill="black"/>
<path d="M43.6273 44.6597H35.4092C35.1295 44.6597 34.8612 44.5486 34.6634 44.3508C34.4656 44.153 34.3545 43.8847 34.3545 43.605C34.3545 43.3253 34.4656 43.057 34.6634 42.8592C34.8612 42.6614 35.1295 42.5503 35.4092 42.5503H42.5727V35.3784C42.5727 35.0987 42.6838 34.8304 42.8815 34.6326C43.0793 34.4348 43.3476 34.3237 43.6273 34.3237C43.9071 34.3237 44.1753 34.4348 44.3731 34.6326C44.5709 34.8304 44.682 35.0987 44.682 35.3784V43.605C44.682 43.8847 44.5709 44.153 44.3731 44.3508C44.1753 44.5486 43.9071 44.6597 43.6273 44.6597Z" fill="black"/>
<path d="M43.6274 44.6597C43.489 44.6608 43.3518 44.6337 43.2241 44.58C43.0965 44.5263 42.9811 44.4472 42.8849 44.3475L31.528 33.0076C31.33 32.8095 31.2187 32.5409 31.2188 32.2609C31.2188 31.9808 31.33 31.7122 31.528 31.5141C31.7261 31.3161 31.9947 31.2048 32.2748 31.2048C32.5549 31.2048 32.8235 31.3161 33.0215 31.5141L44.3615 42.8541C44.4597 42.9521 44.5377 43.0685 44.5908 43.1966C44.644 43.3248 44.6713 43.4621 44.6713 43.6008C44.6713 43.7395 44.644 43.8769 44.5908 44.0051C44.5377 44.1332 44.4597 44.2496 44.3615 44.3475C44.2664 44.4462 44.1523 44.5247 44.0262 44.5784C43.9001 44.632 43.7645 44.6596 43.6274 44.6597Z" fill="black"/>
<path d="M43.6273 19.6172C43.3476 19.6172 43.0793 19.506 42.8815 19.3082C42.6838 19.1104 42.5727 18.8422 42.5727 18.5625V11.3906H35.4092C35.1295 11.3906 34.8612 11.2794 34.6634 11.0816C34.4656 10.8838 34.3545 10.6157 34.3545 10.3359C34.3545 10.0562 34.4656 9.78793 34.6634 9.59014C34.8612 9.39235 35.1295 9.28125 35.4092 9.28125H43.6273C43.9071 9.28125 44.1753 9.39235 44.3731 9.59014C44.5709 9.78793 44.682 10.0562 44.682 10.3359V18.5625C44.682 18.8422 44.5709 19.1104 44.3731 19.3082C44.1753 19.506 43.9071 19.6172 43.6273 19.6172Z" fill="black"/>
<path d="M32.2874 22.7389C32.0061 22.7358 31.737 22.6239 31.5364 22.4267C31.4382 22.3288 31.3603 22.2124 31.3071 22.0843C31.2539 21.9561 31.2266 21.8187 31.2266 21.68C31.2266 21.5413 31.2539 21.4039 31.3071 21.2758C31.3603 21.1476 31.4382 21.0313 31.5364 20.9333L42.8849 9.59334C43.0863 9.41427 43.3487 9.31911 43.6181 9.3274C43.8875 9.3357 44.1434 9.44682 44.3335 9.63794C44.5235 9.82906 44.6332 10.0857 44.6399 10.3551C44.6467 10.6245 44.55 10.8863 44.3698 11.0867L33.0299 22.4267C32.8334 22.6249 32.5664 22.7372 32.2874 22.7389Z" fill="black"/>
</svg>
