<svg width="54" height="54" viewBox="0 0 54 54" fill="none" xmlns="http://www.w3.org/2000/svg">
<path d="M40.9219 28.0715H12.2344C11.8987 28.0715 11.5768 27.9382 11.3394 27.7008C11.1021 27.4635 10.9688 27.1416 10.9688 26.8059C10.9688 26.4702 11.1021 26.1483 11.3394 25.911C11.5768 25.6736 11.8987 25.5403 12.2344 25.5403H40.9219C41.2575 25.5403 41.5795 25.6736 41.8168 25.911C42.0542 26.1483 42.1875 26.4702 42.1875 26.8059C42.1875 27.1416 42.0542 27.4635 41.8168 27.7008C41.5795 27.9382 41.2575 28.0715 40.9219 28.0715Z" fill="black"/>
<path d="M40.9219 37.5806H12.2344C11.8987 37.5806 11.5768 37.4472 11.3394 37.2099C11.1021 36.9725 10.9688 36.6506 10.9688 36.3149C10.9688 35.9793 11.1021 35.6574 11.3394 35.42C11.5768 35.1827 11.8987 35.0493 12.2344 35.0493H40.9219C41.2575 35.0493 41.5795 35.1827 41.8168 35.42C42.0542 35.6574 42.1875 35.9793 42.1875 36.3149C42.1875 36.6506 42.0542 36.9725 41.8168 37.2099C41.5795 37.4472 41.2575 37.5806 40.9219 37.5806Z" fill="black"/>
<path d="M40.9219 18.5625H12.2344C11.8987 18.5625 11.5768 18.4292 11.3394 18.1918C11.1021 17.9545 10.9688 17.6325 10.9688 17.2969C10.9688 16.9612 11.1021 16.6393 11.3394 16.4019C11.5768 16.1646 11.8987 16.0312 12.2344 16.0312H40.9219C41.2575 16.0312 41.5795 16.1646 41.8168 16.4019C42.0542 16.6393 42.1875 16.9612 42.1875 17.2969C42.1875 17.6325 42.0542 17.9545 41.8168 18.1918C41.5795 18.4292 41.2575 18.5625 40.9219 18.5625Z" fill="black"/>
</svg>
