<svg width="54" height="54" viewBox="0 0 54 54" fill="none" xmlns="http://www.w3.org/2000/svg">
<path d="M26.7047 47.4694C22.5934 47.4727 18.5735 46.2565 15.1536 43.9747C11.7337 41.6928 9.06745 38.4478 7.4922 34.6503C5.91695 30.8528 5.50349 26.6733 6.30413 22.6408C7.10477 18.6082 9.08355 14.9037 11.9901 11.996C14.8966 9.08833 18.6003 7.10804 22.6325 6.30577C26.6648 5.50349 30.8444 5.91529 34.6425 7.489C38.4407 9.0627 41.6867 11.7276 43.97 15.1466C46.2532 18.5656 47.4711 22.585 47.4694 26.6963C47.4605 32.2014 45.2702 37.4787 41.3782 41.3723C37.4862 45.2658 32.2099 47.4582 26.7047 47.4694ZM26.7047 8.02406C23.0113 8.02239 19.4004 9.11609 16.3287 11.1668C13.257 13.2175 10.8624 16.1331 9.44785 19.5449C8.03331 22.9566 7.66232 26.7112 8.38184 30.3338C9.10135 33.9564 10.8791 37.2843 13.4901 39.8965C16.1011 42.5087 19.4281 44.2879 23.0504 45.0091C26.6727 45.7302 30.4275 45.3609 33.8399 43.9479C37.2523 42.5349 40.1689 40.1416 42.221 37.0708C44.2731 34 45.3685 30.3896 45.3685 26.6963C45.3618 21.7476 43.3935 17.0034 39.8951 13.5034C36.3967 10.0034 31.6534 8.03299 26.7047 8.02406Z" fill="black"/>
<path d="M21.8701 35.117C21.5904 35.117 21.3222 35.0059 21.1244 34.8081C20.9266 34.6103 20.8154 34.342 20.8154 34.0623V19.322C20.8154 19.0423 20.9266 18.774 21.1244 18.5762C21.3222 18.3784 21.5904 18.2673 21.8701 18.2673C22.1498 18.2673 22.4181 18.3784 22.6159 18.5762C22.8137 18.774 22.9248 19.0423 22.9248 19.322V34.0792C22.9204 34.356 22.8073 34.6199 22.61 34.8141C22.4127 35.0082 22.1469 35.117 21.8701 35.117Z" fill="black"/>
<path d="M31.5312 35.117C31.2515 35.117 30.9833 35.0059 30.7855 34.8081C30.5877 34.6103 30.4766 34.342 30.4766 34.0623V19.322C30.4766 19.0423 30.5877 18.774 30.7855 18.5762C30.9833 18.3784 31.2515 18.2673 31.5312 18.2673C31.811 18.2673 32.0793 18.3784 32.277 18.5762C32.4748 18.774 32.5859 19.0423 32.5859 19.322V34.0792C32.5815 34.356 32.4684 34.6199 32.2711 34.8141C32.0738 35.0082 31.8081 35.117 31.5312 35.117Z" fill="black"/>
</svg>
