<svg width="54" height="54" viewBox="0 0 54 54" fill="none" xmlns="http://www.w3.org/2000/svg">
<path d="M22.3148 39.0741H17.9526C14.7291 38.9899 11.6659 37.6501 9.41569 35.3404C7.1655 33.0306 5.90625 29.9336 5.90625 26.7089C5.90625 23.4843 7.1655 20.3871 9.41569 18.0774C11.6659 15.7677 14.7291 14.428 17.9526 14.3438H22.3148C22.6504 14.3438 22.9724 14.4771 23.2097 14.7144C23.4471 14.9518 23.5804 15.2737 23.5804 15.6094C23.5804 15.945 23.4471 16.267 23.2097 16.5043C22.9724 16.7417 22.6504 16.875 22.3148 16.875H17.9526C15.3944 16.9499 12.966 18.0189 11.183 19.8549C9.39992 21.6909 8.40256 24.1496 8.40256 26.7089C8.40256 29.2683 9.39992 31.7269 11.183 33.563C12.966 35.399 15.3944 36.4679 17.9526 36.5429H22.3148C22.6504 36.5429 22.9724 36.6762 23.2097 36.9135C23.4471 37.1509 23.5804 37.4728 23.5804 37.8085C23.5804 38.1442 23.4471 38.4661 23.2097 38.7034C22.9724 38.9408 22.6504 39.0741 22.3148 39.0741Z" fill="black"/>
<path d="M36.5653 39.0741H32.2031C31.8675 39.0741 31.5456 38.9408 31.3082 38.7034C31.0709 38.4661 30.9375 38.1442 30.9375 37.8085C30.9375 37.4728 31.0709 37.1509 31.3082 36.9135C31.5456 36.6762 31.8675 36.5429 32.2031 36.5429H36.5653C39.1236 36.4679 41.5519 35.399 43.335 33.563C45.118 31.7269 46.1154 29.2683 46.1154 26.7089C46.1154 24.1496 45.118 21.6909 43.335 19.8549C41.5519 18.0189 39.1236 16.9499 36.5653 16.875H32.2031C31.8675 16.875 31.5456 16.7417 31.3082 16.5043C31.0709 16.267 30.9375 15.945 30.9375 15.6094C30.9375 15.2737 31.0709 14.9518 31.3082 14.7144C31.5456 14.4771 31.8675 14.3438 32.2031 14.3438H36.5653C39.7888 14.428 42.8521 15.7677 45.1022 18.0774C47.3524 20.3871 48.6117 23.4843 48.6117 26.7089C48.6117 29.9336 47.3524 33.0306 45.1022 35.3404C42.8521 37.6501 39.7888 38.9899 36.5653 39.0741Z" fill="black"/>
<path d="M34.8949 27.979H19.623C19.2874 27.979 18.9655 27.8457 18.7281 27.6083C18.4908 27.371 18.3574 27.049 18.3574 26.7134C18.3574 26.3777 18.4908 26.0558 18.7281 25.8184C18.9655 25.5811 19.2874 25.4478 19.623 25.4478H34.8949C35.2306 25.4478 35.5525 25.5811 35.7899 25.8184C36.0272 26.0558 36.1606 26.3777 36.1606 26.7134C36.1606 27.049 36.0272 27.371 35.7899 27.6083C35.5525 27.8457 35.2306 27.979 34.8949 27.979Z" fill="black"/>
</svg>
