<svg width="54" height="54" viewBox="0 0 54 54" fill="none" xmlns="http://www.w3.org/2000/svg">
<path d="M26.7975 47.1151L26.1562 46.6172C25.5319 46.1362 10.9688 34.8047 10.9688 22.9922C10.9688 15.0103 16.875 6.75 26.7891 6.75C36.7031 6.75 42.6094 15.0103 42.6094 22.9922C42.6094 34.8047 28.0547 46.1278 27.4219 46.6172L26.7975 47.1151ZM26.7975 8.86782C18.2166 8.86782 13.0866 16.0566 13.0866 23.0006C13.0866 32.4084 24.0047 42.0947 26.7975 44.4235C29.5903 42.0947 40.5084 32.4084 40.5084 23.0006C40.5422 16.0566 35.4122 8.9016 26.7975 8.9016V8.86782ZM26.7975 29.7506C25.9256 29.7511 25.0626 29.5749 24.2607 29.2327C23.4588 28.8904 22.7345 28.3892 22.1315 27.7594C20.8984 26.4821 20.2092 24.776 20.2092 23.0006C20.2092 21.2252 20.8984 19.5191 22.1315 18.2419C22.7345 17.612 23.4588 17.1109 24.2607 16.7687C25.0626 16.4265 25.9256 16.2502 26.7975 16.2506C27.6698 16.2558 28.5324 16.4345 29.3349 16.7763C30.1374 17.1182 30.8638 17.6164 31.4719 18.2419C32.7011 19.5211 33.3877 21.2265 33.3877 23.0006C33.3877 24.7748 32.7011 26.4801 31.4719 27.7594C30.8638 28.3849 30.1374 28.8831 29.3349 29.2249C28.5324 29.5668 27.6698 29.7455 26.7975 29.7506ZM26.7975 18.36C26.2076 18.3604 25.624 18.4803 25.0816 18.7124C24.5393 18.9444 24.0496 19.2838 23.6419 19.7101C22.7921 20.5948 22.3176 21.7739 22.3176 23.0006C22.3176 24.2274 22.7921 25.4066 23.6419 26.2913C24.05 26.7183 24.5403 27.0582 25.0834 27.2905C25.6265 27.5227 26.2111 27.6424 26.8017 27.6424C27.3924 27.6424 27.9769 27.5227 28.52 27.2905C29.0631 27.0582 29.5535 26.7183 29.9616 26.2913C30.8056 25.4036 31.2762 24.2255 31.2762 23.0006C31.2762 21.7758 30.8056 20.5978 29.9616 19.7101C29.5517 19.2843 29.0604 18.9453 28.5168 18.7134C27.9732 18.4815 27.3885 18.3612 26.7975 18.36Z" fill="black"/>
</svg>
