<svg width="54" height="54" viewBox="0 0 54 54" fill="none" xmlns="http://www.w3.org/2000/svg">
<path d="M40.5928 49.0133H13.7109C12.7599 49.0133 11.8478 48.6354 11.1753 47.9629C10.5028 47.2904 10.125 46.3784 10.125 45.4274V25.0085C10.1272 24.0582 10.5057 23.1473 11.1778 22.4753C11.8498 21.8033 12.7606 21.4248 13.7109 21.4226H40.5928C41.5432 21.4248 42.454 21.8033 43.126 22.4753C43.798 23.1473 44.1765 24.0582 44.1787 25.0085V45.4274C44.1787 46.3784 43.8009 47.2904 43.1284 47.9629C42.4559 48.6354 41.5438 49.0133 40.5928 49.0133ZM13.7109 23.532C13.32 23.5342 12.9457 23.6905 12.6693 23.9669C12.3928 24.2434 12.2366 24.6176 12.2344 25.0085V45.4274C12.2344 45.819 12.3899 46.1945 12.6668 46.4714C12.9437 46.7483 13.3193 46.9039 13.7109 46.9039H40.5928C40.9844 46.9039 41.36 46.7483 41.6369 46.4714C41.9138 46.1945 42.0694 45.819 42.0694 45.4274V25.0085C42.0671 24.6176 41.9109 24.2434 41.6345 23.9669C41.358 23.6905 40.9837 23.5342 40.5928 23.532H13.7109Z" fill="black"/>
<path d="M38.2473 23.5322H16.0566V16.1578C16.0566 13.2152 17.2256 10.393 19.3064 8.31226C21.3871 6.23148 24.2093 5.0625 27.1519 5.0625C30.0946 5.0625 32.9167 6.23148 34.9975 8.31226C37.0783 10.393 38.2473 13.2152 38.2473 16.1578V23.5322ZM18.166 21.4228H36.1379V16.1578C36.1379 13.7746 35.1912 11.489 33.506 9.80386C31.8208 8.11867 29.5352 7.17188 27.1519 7.17188C24.7687 7.17188 22.4831 8.11867 20.7979 9.80386C19.1127 11.489 18.166 13.7746 18.166 16.1578V21.4228Z" fill="black"/>
<path d="M27.1521 38.7873C29.1232 38.7873 30.7211 37.1894 30.7211 35.2182C30.7211 33.2471 29.1232 31.6492 27.1521 31.6492C25.1809 31.6492 23.583 33.2471 23.583 35.2182C23.583 37.1894 25.1809 38.7873 27.1521 38.7873Z" fill="black"/>
</svg>
