<svg width="54" height="54" viewBox="0 0 54 54" fill="none" xmlns="http://www.w3.org/2000/svg">
<path d="M45.2166 43.1494H9.49219C8.54114 43.1494 7.62903 42.7716 6.95653 42.0991C6.28404 41.4266 5.90625 40.5145 5.90625 39.5634V14.5547C5.90625 13.6036 6.28404 12.6916 6.95653 12.0191C7.62903 11.3466 8.54114 10.9688 9.49219 10.9688H45.2166C46.1676 10.9688 47.0797 11.3466 47.7522 12.0191C48.4247 12.6916 48.8025 13.6036 48.8025 14.5547V39.5719C48.8003 40.5215 48.4215 41.4314 47.7492 42.1021C47.077 42.7728 46.1662 43.1494 45.2166 43.1494ZM9.49219 13.0781C9.10058 13.0781 8.72502 13.2337 8.44811 13.5106C8.1712 13.7875 8.01563 14.1631 8.01563 14.5547V39.5719C8.01563 39.9635 8.1712 40.3391 8.44811 40.616C8.72502 40.8929 9.10058 41.0485 9.49219 41.0485H45.2166C45.6082 41.0485 45.9837 40.8929 46.2606 40.616C46.5376 40.3391 46.6931 39.9635 46.6931 39.5719V14.5631C46.6931 14.1715 46.5376 13.796 46.2606 13.5191C45.9837 13.2421 45.6082 13.0866 45.2166 13.0866L9.49219 13.0781Z" fill="black"/>
<path d="M27.3545 30.4259C27.1038 30.4254 26.8615 30.3356 26.671 30.1727L7.19727 13.5761L8.56414 11.9646L27.3545 27.9958L46.1447 11.9646L47.5116 13.5761L28.0379 30.1727C27.8482 30.3369 27.6054 30.4269 27.3545 30.4259Z" fill="black"/>
</svg>
