<svg width="54" height="54" viewBox="0 0 54 54" fill="none" xmlns="http://www.w3.org/2000/svg">
<path d="M30.5489 31.2512C30.4093 31.2514 30.271 31.2239 30.1421 31.1703C30.0132 31.1167 29.8963 31.0381 29.798 30.939L18.593 19.734C18.494 19.6373 18.4153 19.5218 18.3616 19.3943C18.3079 19.2668 18.2803 19.1298 18.2803 18.9915C18.2803 18.8531 18.3079 18.7162 18.3616 18.5887C18.4153 18.4611 18.494 18.3456 18.593 18.249L27.0305 9.81147C27.8393 8.88752 28.8292 8.13949 29.9389 7.61372C31.0486 7.08795 32.2543 6.79567 33.4816 6.75494C34.7088 6.7142 35.9314 6.92591 37.0735 7.37693C38.2156 7.82796 39.253 8.50865 40.1213 9.37693C40.9895 10.2452 41.6702 11.2826 42.1213 12.4247C42.5723 13.5668 42.784 14.7894 42.7433 16.0166C42.7025 17.2439 42.4102 18.4497 41.8845 19.5594C41.3587 20.6691 40.6107 21.6589 39.6867 22.4677L31.2492 30.8546C31.1648 30.964 31.0594 31.0555 30.9391 31.1236C30.8188 31.1917 30.6862 31.235 30.5489 31.2512ZM20.8458 19.0084L30.5489 28.703L38.1933 21.0586C39.4344 19.7629 40.1185 18.0325 40.0988 16.2384C40.0791 14.4442 39.3572 12.7291 38.0879 11.461C36.8186 10.1928 35.103 9.47241 33.3088 9.45428C31.5147 9.43614 29.7848 10.1217 28.4901 11.3639L20.8458 19.0084Z" fill="black"/>
<path d="M16.5602 41.9583C14.7872 41.9578 13.0541 41.4318 11.5799 40.4468C10.1057 39.4617 8.95647 38.0619 8.27749 36.424C7.5985 34.7861 7.42018 32.9838 7.76508 31.2446C8.10997 29.5054 8.96254 27.9075 10.2152 26.6527L18.6527 18.2659C18.7506 18.1676 18.8671 18.0897 18.9952 18.0365C19.1234 17.9833 19.2607 17.9561 19.3994 17.9561C19.5381 17.9561 19.6755 17.9833 19.8037 18.0365C19.9318 18.0897 20.0481 18.1676 20.1461 18.2659L31.3343 29.454C31.4322 29.5513 31.51 29.6669 31.563 29.7943C31.6161 29.9217 31.6434 30.0585 31.6434 30.1965C31.6434 30.3345 31.6161 30.4712 31.563 30.5986C31.51 30.726 31.4322 30.8418 31.3343 30.939L22.8968 39.3765C22.062 40.2021 21.0727 40.855 19.9854 41.298C18.8982 41.741 17.7342 41.9654 16.5602 41.9583ZM19.353 20.5018L11.7086 28.1461C11.0498 28.7783 10.5239 29.5355 10.1616 30.3736C9.79929 31.2116 9.60785 32.1135 9.59863 33.0264C9.5894 33.9394 9.76254 34.8451 10.1078 35.6903C10.4531 36.5354 10.9637 37.3032 11.6095 37.9485C12.2554 38.5938 13.0236 39.1036 13.8691 39.4482C14.7146 39.7928 15.6204 39.9651 16.5333 39.955C17.4462 39.945 18.348 39.7529 19.1857 39.3899C20.0234 39.0269 20.7802 38.5002 21.4117 37.8408L29.0562 30.1965L19.353 20.5018Z" fill="black"/>
<path d="M13.7587 36.8453C13.6211 36.846 13.4845 36.8196 13.3571 36.7674C13.2297 36.7153 13.1139 36.6386 13.0162 36.5416C11.9296 35.4518 11.3193 33.9757 11.3193 32.4367C11.3193 30.8978 11.9296 29.4215 13.0162 28.3318C13.1142 28.2336 13.2305 28.1557 13.3587 28.1025C13.4868 28.0493 13.6242 28.022 13.7629 28.022C13.9017 28.022 14.039 28.0493 14.1671 28.1025C14.2952 28.1557 14.4117 28.2336 14.5097 28.3318C14.704 28.5318 14.8127 28.7997 14.8127 29.0785C14.8127 29.3574 14.704 29.6252 14.5097 29.8252C13.8177 30.5182 13.429 31.4575 13.429 32.4367C13.429 33.416 13.8177 34.3552 14.5097 35.0481C14.704 35.2481 14.8127 35.516 14.8127 35.7948C14.8127 36.0737 14.704 36.3416 14.5097 36.5416C14.3082 36.7364 14.039 36.8453 13.7587 36.8453Z" fill="black"/>
<path d="M36.3541 47.468C34.4229 47.468 32.5351 46.8953 30.9295 45.8222C29.324 44.7492 28.0727 43.224 27.3341 41.4397C26.5955 39.6554 26.4026 37.6922 26.78 35.7982C27.1574 33.9043 28.088 32.1648 29.4541 30.7999C30.8202 29.435 32.5605 28.5059 34.4547 28.1301C36.3489 27.7544 38.3121 27.949 40.0957 28.6892C41.8794 29.4294 43.4034 30.6818 44.4751 32.2883C45.5467 33.8948 46.1179 35.7832 46.1162 37.7143C46.114 40.3019 45.0844 42.7827 43.2539 44.6117C41.4234 46.4406 38.9417 47.468 36.3541 47.468ZM36.3541 30.0614C34.8405 30.0614 33.3609 30.5103 32.1024 31.3512C30.8439 32.1921 29.863 33.3873 29.2837 34.7857C28.7045 36.1841 28.553 37.7227 28.8483 39.2072C29.1436 40.6917 29.8724 42.0554 30.9427 43.1256C32.013 44.1959 33.3765 44.9247 34.861 45.22C36.3455 45.5153 37.8843 45.3637 39.2827 44.7845C40.681 44.2053 41.8762 43.2244 42.7171 41.9659C43.558 40.7074 44.0068 39.2279 44.0068 37.7143C44.0068 35.6846 43.2006 33.738 41.7654 32.3028C40.3302 30.8677 38.3837 30.0614 36.3541 30.0614Z" fill="black"/>
<path d="M45.0618 38.769H27.6553C27.3756 38.769 27.1073 38.6578 26.9095 38.4601C26.7117 38.2623 26.6006 37.9941 26.6006 37.7144C26.6006 37.4346 26.7117 37.1663 26.9095 36.9686C27.1073 36.7708 27.3756 36.6597 27.6553 36.6597H45.0618C45.3416 36.6597 45.6098 36.7708 45.8076 36.9686C46.0054 37.1663 46.1165 37.4346 46.1165 37.7144C46.1165 37.9941 46.0054 38.2623 45.8076 38.4601C45.6098 38.6578 45.3416 38.769 45.0618 38.769Z" fill="black"/>
</svg>
