<svg width="54" height="54" viewBox="0 0 54 54" fill="none" xmlns="http://www.w3.org/2000/svg">
<path d="M26.6963 47.4694C22.5853 47.471 18.5662 46.2534 15.1474 43.9706C11.7286 41.6877 9.06373 38.4422 7.48978 34.6445C5.91582 30.8468 5.50357 26.6676 6.30516 22.6356C7.10675 18.6036 9.08614 14.8999 11.993 11.993C14.8999 9.08618 18.6036 7.10674 22.6356 6.30515C26.6676 5.50355 30.8468 5.91586 34.6445 7.48982C38.4422 9.06377 41.6877 11.7287 43.9706 15.1475C46.2534 18.5663 47.4711 22.5853 47.4694 26.6962C47.4627 32.2036 45.272 37.4835 41.3777 41.3777C37.4834 45.272 32.2036 47.4627 26.6963 47.4694ZM26.6963 8.02406C23.0029 8.02239 19.392 9.11609 16.3203 11.1668C13.2485 13.2175 10.854 16.1331 9.4394 19.5449C8.02486 22.9566 7.65387 26.7113 8.37339 30.3339C9.0929 33.9565 10.8706 37.2843 13.4816 39.8965C16.0926 42.5087 19.4197 44.2879 23.0419 45.0091C26.6642 45.7302 30.419 45.3609 33.8314 43.9479C37.2438 42.5349 40.1605 40.1417 42.2126 37.0709C44.2647 34.0001 45.36 30.3896 45.36 26.6962C45.3555 21.7469 43.388 17.0014 39.8891 13.5009C36.3902 10.0004 31.6456 8.03076 26.6963 8.02406Z" fill="black"/>
<path d="M26.6966 27.7849C25.3766 27.7849 24.0862 27.3934 22.9886 26.66C21.8911 25.9267 21.0356 24.8844 20.5305 23.6649C20.0254 22.4454 19.8932 21.1034 20.1507 19.8088C20.4082 18.5142 21.0439 17.325 21.9772 16.3916C22.9106 15.4582 24.0998 14.8225 25.3945 14.565C26.6891 14.3075 28.0311 14.4396 29.2506 14.9448C30.4701 15.4499 31.5125 16.3053 32.2458 17.4029C32.9792 18.5004 33.3706 19.7908 33.3706 21.1108C33.3706 21.3905 33.2595 21.6588 33.0617 21.8566C32.8639 22.0544 32.5956 22.1655 32.3159 22.1655C32.0362 22.1655 31.768 22.0544 31.5702 21.8566C31.3724 21.6588 31.2612 21.3905 31.2612 21.1108C31.2612 20.208 30.9935 19.3255 30.4919 18.5748C29.9904 17.8241 29.2775 17.2391 28.4434 16.8936C27.6093 16.5481 26.6915 16.4577 25.806 16.6338C24.9205 16.8099 24.1072 17.2447 23.4688 17.8831C22.8305 18.5214 22.3957 19.3348 22.2195 20.2203C22.0434 21.1057 22.1338 22.0235 22.4793 22.8576C22.8248 23.6917 23.4099 24.4046 24.1605 24.9062C24.9112 25.4078 25.7938 25.6755 26.6966 25.6755C26.9763 25.6755 27.2445 25.7866 27.4423 25.9844C27.6401 26.1822 27.7513 26.4505 27.7513 26.7302C27.7513 27.0099 27.6401 27.2782 27.4423 27.476C27.2445 27.6738 26.9763 27.7849 26.6966 27.7849Z" fill="black"/>
<path d="M26.6966 39.015C24.9272 39.0128 23.2309 38.3089 21.9797 37.0577C20.7286 35.8066 20.0247 34.1104 20.0225 32.341C20.0225 32.0613 20.1336 31.793 20.3314 31.5952C20.5292 31.3974 20.7974 31.2863 21.0771 31.2863C21.3569 31.2863 21.6252 31.3974 21.8229 31.5952C22.0207 31.793 22.1318 32.0613 22.1318 32.341C22.1302 33.2442 22.3965 34.1275 22.8971 34.8793C23.3976 35.631 24.1099 36.2174 24.9439 36.5642C25.7778 36.911 26.6958 37.0026 27.5819 36.8274C28.4679 36.6523 29.2821 36.2182 29.9213 35.5802C30.5605 34.9421 30.9961 34.1287 31.1729 33.2431C31.3497 32.3574 31.2598 31.4392 30.9146 30.6046C30.5693 29.77 29.9843 29.0566 29.2334 28.5546C28.4826 28.0527 27.5997 27.7847 26.6966 27.7847C26.4168 27.7847 26.1485 27.6736 25.9508 27.4758C25.753 27.2781 25.6419 27.0098 25.6419 26.73C25.6419 26.4503 25.753 26.182 25.9508 25.9842C26.1485 25.7865 26.4168 25.6754 26.6966 25.6754C27.5924 25.6435 28.4855 25.7925 29.3225 26.1133C30.1596 26.4341 30.9234 26.9203 31.5684 27.5428C32.2134 28.1653 32.7265 28.9113 33.0769 29.7364C33.4273 30.5615 33.6078 31.4488 33.6078 32.3452C33.6078 33.2417 33.4273 34.1288 33.0769 34.9539C32.7265 35.779 32.2134 36.5252 31.5684 37.1477C30.9234 37.7702 30.1596 38.2563 29.3225 38.5772C28.4855 38.898 27.5924 39.0469 26.6966 39.015Z" fill="black"/>
<path d="M26.6963 41.2087C26.4166 41.2087 26.1483 41.0975 25.9505 40.8997C25.7527 40.7019 25.6416 40.4338 25.6416 40.154V37.9602C25.6416 37.6805 25.7527 37.4123 25.9505 37.2145C26.1483 37.0167 26.4166 36.9055 26.6963 36.9055C26.976 36.9055 27.2442 37.0167 27.442 37.2145C27.6398 37.4123 27.751 37.6805 27.751 37.9602V40.154C27.751 40.4338 27.6398 40.7019 27.442 40.8997C27.2442 41.0975 26.976 41.2087 26.6963 41.2087Z" fill="black"/>
<path d="M26.6959 16.3012C26.4191 16.2924 26.1569 16.1751 25.9659 15.9746C25.7749 15.7741 25.6704 15.5065 25.6749 15.2296V13.0359C25.6749 12.7562 25.786 12.4879 25.9838 12.2901C26.1816 12.0923 26.4499 11.9812 26.7296 11.9812C27.0094 11.9812 27.2776 12.0923 27.4754 12.2901C27.6732 12.4879 27.7843 12.7562 27.7843 13.0359V15.2296C27.7867 15.3724 27.76 15.5143 27.7059 15.6464C27.6519 15.7786 27.5715 15.8984 27.4697 15.9986C27.3679 16.0988 27.2469 16.1773 27.1139 16.2293C26.9808 16.2813 26.8387 16.3058 26.6959 16.3012Z" fill="black"/>
</svg>
