<svg width="54" height="54" viewBox="0 0 54 54" fill="none" xmlns="http://www.w3.org/2000/svg">
<path d="M27.4219 16.875C29.0528 16.875 30.375 15.5528 30.375 13.9219C30.375 12.2909 29.0528 10.9688 27.4219 10.9688C25.7909 10.9688 24.4688 12.2909 24.4688 13.9219C24.4688 15.5528 25.7909 16.875 27.4219 16.875Z" fill="black"/>
<path d="M27.4219 30.375C29.0528 30.375 30.375 29.0528 30.375 27.4219C30.375 25.7909 29.0528 24.4688 27.4219 24.4688C25.7909 24.4688 24.4688 25.7909 24.4688 27.4219C24.4688 29.0528 25.7909 30.375 27.4219 30.375Z" fill="black"/>
<path d="M27.4219 43.875C29.0528 43.875 30.375 42.5528 30.375 40.9219C30.375 39.2909 29.0528 37.9688 27.4219 37.9688C25.7909 37.9688 24.4688 39.2909 24.4688 40.9219C24.4688 42.5528 25.7909 43.875 27.4219 43.875Z" fill="black"/>
</svg>
