<svg width="54" height="54" viewBox="0 0 54 54" fill="none" xmlns="http://www.w3.org/2000/svg">
<path d="M16.875 27.4219C16.875 25.7909 15.5528 24.4688 13.9219 24.4688C12.2909 24.4688 10.9688 25.7909 10.9688 27.4219C10.9688 29.0528 12.2909 30.375 13.9219 30.375C15.5528 30.375 16.875 29.0528 16.875 27.4219Z" fill="black"/>
<path d="M30.375 27.4219C30.375 25.7909 29.0528 24.4688 27.4219 24.4688C25.7909 24.4688 24.4688 25.7909 24.4688 27.4219C24.4688 29.0528 25.7909 30.375 27.4219 30.375C29.0528 30.375 30.375 29.0528 30.375 27.4219Z" fill="black"/>
<path d="M43.875 27.4219C43.875 25.7909 42.5528 24.4688 40.9219 24.4688C39.2909 24.4688 37.9688 25.7909 37.9688 27.4219C37.9688 29.0528 39.2909 30.375 40.9219 30.375C42.5528 30.375 43.875 29.0528 43.875 27.4219Z" fill="black"/>
</svg>
