<svg width="54" height="54" viewBox="0 0 54 54" fill="none" xmlns="http://www.w3.org/2000/svg">
<path d="M22.3946 11.8145C22.7097 11.8256 23.0098 11.9517 23.2384 12.1689L37.5821 26.0908C37.7043 26.2081 37.8016 26.3489 37.8681 26.5048C37.9345 26.6607 37.9688 26.8283 37.9688 26.9977C37.9688 27.1672 37.9345 27.3349 37.8681 27.4908C37.8016 27.6467 37.7043 27.7875 37.5821 27.9048L23.2384 41.8267C23.1192 41.9431 22.9784 42.0348 22.8238 42.0967C22.6692 42.1586 22.504 42.1894 22.3375 42.1874C22.171 42.1855 22.0065 42.1508 21.8535 42.0852C21.7004 42.0197 21.5617 41.9247 21.4454 41.8056C21.329 41.6865 21.2373 41.5456 21.1754 41.391C21.1135 41.2365 21.0826 41.0712 21.0846 40.9047C21.0865 40.7382 21.1213 40.5738 21.1868 40.4207C21.2523 40.2676 21.3474 40.129 21.4665 40.0126L34.8568 26.9935L21.4665 13.983C21.2295 13.7457 21.0963 13.4239 21.0963 13.0885C21.0963 12.7532 21.2295 12.4314 21.4665 12.1941C21.5866 12.0701 21.731 11.9724 21.8907 11.9071C22.0505 11.8417 22.2221 11.8102 22.3946 11.8145Z" fill="black"/>
</svg>
