<svg width="54" height="54" viewBox="0 0 54 54" fill="none" xmlns="http://www.w3.org/2000/svg">
<path d="M39.2678 40.5336C39.1016 40.5339 38.937 40.5012 38.7835 40.4375C38.63 40.3738 38.4906 40.2802 38.3735 40.1623L13.9047 15.6935C13.6664 15.4563 13.532 15.1342 13.5313 14.798C13.5305 14.4617 13.6633 14.1389 13.9005 13.9006C14.1377 13.6622 14.4599 13.5279 14.7961 13.5271C15.1324 13.5263 15.4551 13.6591 15.6935 13.8963L40.1622 38.3651C40.3972 38.6035 40.5289 38.9248 40.5289 39.2595C40.5289 39.5942 40.3972 39.9155 40.1622 40.1538C39.9249 40.3921 39.604 40.5283 39.2678 40.5336Z" fill="black"/>
<path d="M14.7987 40.5337C14.5485 40.5335 14.3041 40.4591 14.0961 40.32C13.8882 40.1809 13.7261 39.9834 13.6304 39.7523C13.5347 39.5211 13.5097 39.2667 13.5584 39.0214C13.6072 38.776 13.7275 38.5506 13.9043 38.3736L38.3731 13.9049C38.6114 13.6677 38.9342 13.5349 39.2704 13.5356C39.6067 13.5364 39.9288 13.6708 40.166 13.9091C40.4032 14.1474 40.5361 14.4703 40.5353 14.8065C40.5345 15.1428 40.4001 15.4649 40.1618 15.7021L15.6931 40.1708C15.5752 40.2872 15.4356 40.3792 15.2821 40.4415C15.1286 40.5038 14.9643 40.5351 14.7987 40.5337Z" fill="black"/>
</svg>
