<svg width="54" height="54" viewBox="0 0 54 54" fill="none" xmlns="http://www.w3.org/2000/svg">
<path d="M30.1884 45.2341H29.8425C29.0769 45.1775 28.3517 44.8684 27.7806 44.3554C27.2096 43.8423 26.8249 43.1543 26.6869 42.3991L24.4425 31.1603C24.3877 30.8832 24.2517 30.6285 24.0519 30.4287C23.8521 30.229 23.5975 30.093 23.3203 30.0382L12.0816 27.7938C11.3426 27.6337 10.6739 27.2421 10.1729 26.6758C9.67185 26.1094 9.36466 25.3979 9.29595 24.6449C9.22724 23.8918 9.40062 23.1366 9.79085 22.4889C10.1811 21.8413 10.7678 21.3349 11.4656 21.0438L40.3641 9.53502C41.0081 9.27724 41.7136 9.21415 42.3931 9.35354C43.0726 9.49293 43.6963 9.82874 44.1868 10.3192C44.6773 10.8097 45.013 11.4334 45.1524 12.1129C45.2918 12.7925 45.2287 13.498 44.971 14.142L33.4622 43.0404C33.2017 43.6937 32.7495 44.2529 32.1652 44.6445C31.5809 45.036 30.8918 45.2416 30.1884 45.2341ZM28.7541 41.9688C28.8144 42.273 28.9717 42.5493 29.2024 42.7565C29.4331 42.9638 29.7247 43.0907 30.0335 43.1183C30.3424 43.1458 30.6518 43.0725 30.9156 42.9094C31.1793 42.7463 31.383 42.5022 31.4962 42.2135L43.0135 13.3151C43.1178 13.0544 43.1433 12.7689 43.0869 12.4938C43.0305 12.2188 42.8946 11.9663 42.6961 11.7678C42.4975 11.5692 42.2451 11.4333 41.97 11.3769C41.695 11.3205 41.4094 11.346 41.1487 11.4503L12.2672 22.9676C11.9786 23.0808 11.7344 23.2845 11.5713 23.5483C11.4081 23.812 11.3349 24.1215 11.3624 24.4303C11.39 24.7392 11.5169 25.0307 11.7242 25.2614C11.9314 25.4921 12.2077 25.6494 12.5119 25.7097L23.7506 27.9541C24.4363 28.0897 25.0663 28.4259 25.5605 28.9202C26.0548 29.4144 26.391 30.0443 26.5266 30.73L28.7541 41.9688Z" fill="black"/>
<path d="M42.1031 10.7448L23.6973 29.1506L25.1888 30.6422L43.5946 12.2364L42.1031 10.7448Z" fill="black"/>
</svg>
