<svg width="54" height="54" viewBox="0 0 54 54" fill="none" xmlns="http://www.w3.org/2000/svg">
<path d="M24.8951 45.1356H14.5085C14.3697 45.1367 14.232 45.1102 14.1036 45.0576C13.9751 45.005 13.8584 44.9273 13.7602 44.8292C13.6621 44.731 13.5844 44.6143 13.5318 44.4859C13.4792 44.3574 13.4527 44.2197 13.4538 44.0809V40.9168C13.4516 40.6602 13.3487 40.4146 13.1672 40.2331C12.9857 40.0516 12.7402 39.9487 12.4835 39.9465H10.3488C9.10833 39.9465 7.91853 39.4543 7.04057 38.578C6.16262 37.7016 5.66826 36.5127 5.66603 35.2722V32.1587H4.74632C4.33288 32.1595 3.92752 32.0444 3.57622 31.8264C3.22493 31.6084 2.94178 31.2963 2.75899 30.9254C2.57621 30.5546 2.50112 30.1399 2.54219 29.7285C2.58325 29.3171 2.73887 28.9255 2.99136 28.5981L5.32006 25.5606C5.41812 25.4176 5.4574 25.2423 5.42975 25.0712C5.3672 24.5109 5.33623 23.9475 5.33695 23.3837C5.39388 19.6881 6.89452 16.1615 9.51796 13.5581C12.1414 10.9546 15.6794 9.48099 19.3753 9.45233C23.0711 9.42367 26.6316 10.8423 29.295 13.4047C31.9585 15.9672 33.5137 19.4701 33.6279 23.1643C33.6688 25.3106 33.2179 27.4379 32.3097 29.383C31.4014 31.3282 30.06 33.0396 28.3882 34.3862C27.6047 35.0362 26.9783 35.8551 26.556 36.7815C26.1337 37.7079 25.9265 38.7177 25.9498 39.7356V44.0471C25.9555 44.1887 25.9324 44.3301 25.8818 44.4625C25.8313 44.5949 25.7544 44.7156 25.6558 44.8174C25.5571 44.9192 25.4388 44.9999 25.3081 45.0546C25.1773 45.1093 25.0368 45.1368 24.8951 45.1356ZM15.5632 43.0262H23.8404V39.7693C23.821 38.4376 24.0997 37.1183 24.6559 35.9081C25.2121 34.6979 26.0318 33.6272 27.0551 32.7746C28.4785 31.6305 29.6208 30.1756 30.3945 28.5214C31.1683 26.8672 31.5528 25.0577 31.5185 23.2319C31.4281 20.195 30.2078 17.3011 28.0965 15.1164C25.9851 12.9317 23.1346 11.6134 20.1026 11.4194C18.4728 11.3371 16.8433 11.5867 15.3129 12.1531C13.7825 12.7195 12.3831 13.591 11.1996 14.7145C10.0161 15.8381 9.07311 17.1903 8.42794 18.6892C7.78277 20.1881 7.44882 21.8025 7.44633 23.4344C7.4457 23.9051 7.47107 24.3754 7.52229 24.8434C7.61759 25.5593 7.42657 26.284 6.99072 26.8599L4.66196 29.8975C4.65031 29.9134 4.64404 29.9326 4.64404 29.9523C4.64404 29.972 4.65031 29.9912 4.66196 30.0071C4.66781 30.0264 4.68037 30.043 4.6974 30.0539C4.71442 30.0647 4.73479 30.0691 4.75476 30.0662H6.72916C7.00888 30.0662 7.27712 30.1773 7.47491 30.3751C7.6727 30.5729 7.78385 30.8412 7.78385 31.1209V35.289C7.79471 35.9569 8.06485 36.5945 8.53722 37.0669C9.00959 37.5393 9.64716 37.8094 10.3151 37.8202H12.5173C13.3334 37.8225 14.1154 38.1477 14.6925 38.7247C15.2695 39.3018 15.5948 40.0838 15.597 40.8999L15.5632 43.0262Z" fill="black"/>
<path d="M39.6012 45.1357H29.2231C29.0843 45.1368 28.9466 45.1103 28.8182 45.0577C28.6897 45.0051 28.573 44.9275 28.4748 44.8293C28.3766 44.7311 28.299 44.6145 28.2464 44.486C28.1938 44.3575 28.1673 44.2198 28.1684 44.081V39.7695C28.188 38.7522 27.9791 37.7435 27.5571 36.8177C27.1351 35.8919 26.5107 35.0726 25.7299 34.4201C24.0571 33.0739 22.7144 31.3628 21.8047 29.4177C20.8951 27.4726 20.4426 25.3451 20.4818 23.1982C20.5433 19.6124 21.9633 16.1835 24.4549 13.6042C26.9466 11.0248 30.3244 9.48708 33.9059 9.30167C35.8233 9.19849 37.7417 9.48711 39.5438 10.1499C41.346 10.8128 42.9942 11.8359 44.3878 13.1568C45.7814 14.4778 46.8912 16.069 47.6495 17.8331C48.4077 19.5972 48.7986 21.4974 48.7981 23.4176C48.8032 23.9815 48.7722 24.5451 48.7053 25.1051C48.685 25.2771 48.7269 25.4506 48.8234 25.5944L51.1521 28.632C51.4046 28.9594 51.5602 29.351 51.6013 29.7624C51.6424 30.1738 51.5673 30.5885 51.3845 30.9593C51.2017 31.3302 50.9186 31.6423 50.5673 31.8603C50.216 32.0783 49.8106 32.1934 49.3972 32.1926H48.4775V35.306C48.4752 36.5465 47.9809 37.7354 47.1029 38.6118C46.225 39.4882 45.0352 39.9804 43.7947 39.9804H41.66C41.4018 39.9804 41.1542 40.0823 40.9708 40.2641C40.7875 40.4458 40.6834 40.6926 40.6812 40.9507V44.1148C40.678 44.2529 40.6474 44.389 40.5912 44.5153C40.535 44.6415 40.4544 44.7554 40.354 44.8503C40.2536 44.9452 40.1353 45.0194 40.0061 45.0683C39.8769 45.1173 39.7393 45.1402 39.6012 45.1357ZM30.2778 43.0263H38.5465V40.917C38.5487 40.0994 38.8751 39.3161 39.454 38.7388C40.0329 38.1615 40.8171 37.8372 41.6347 37.8372H43.7356C44.4109 37.8373 45.0591 37.5721 45.5405 37.0986C46.0219 36.625 46.298 35.9812 46.309 35.306V31.1379C46.3079 30.9991 46.3344 30.8614 46.387 30.7329C46.4396 30.6045 46.5173 30.4878 46.6154 30.3897C46.7136 30.2915 46.8303 30.2138 46.9588 30.1612C47.0872 30.1086 47.2249 30.0821 47.3637 30.0832H49.3381C49.3576 30.0834 49.3767 30.0779 49.3932 30.0674C49.4097 30.0569 49.4228 30.0419 49.4309 30.0241C49.4426 30.0082 49.4488 29.989 49.4488 29.9693C49.4488 29.9496 49.4426 29.9303 49.4309 29.9144L47.1106 26.8769C46.6726 26.3018 46.4786 25.5774 46.5706 24.8604C46.6218 24.3924 46.6472 23.9221 46.6465 23.4514C46.644 21.8195 46.3101 20.2051 45.6649 18.7062C45.0197 17.2073 44.0768 15.8551 42.8933 14.7316C41.7098 13.608 40.3104 12.7366 38.78 12.1701C37.2496 11.6037 35.6201 11.3541 33.9903 11.4364C30.9583 11.6304 28.1078 12.9488 25.9964 15.1335C23.885 17.3181 22.6648 20.212 22.5743 23.2489C22.5401 25.0748 22.9246 26.8842 23.6983 28.5384C24.472 30.1926 25.6144 31.6475 27.0378 32.7916C28.0636 33.6426 28.8855 34.7127 29.4433 35.9232C30.0011 37.1336 30.2805 38.4537 30.2609 39.7864L30.2778 43.0263Z" fill="black"/>
</svg>
