<svg width="54" height="54" viewBox="0 0 54 54" fill="none" xmlns="http://www.w3.org/2000/svg">
<path d="M20.6719 42.9638C20.3362 42.9638 20.0143 42.8305 19.7769 42.5931C19.5396 42.3558 19.4063 42.0338 19.4063 41.6982V13.0781C19.4062 12.7425 19.5396 12.4205 19.7769 12.1832C20.0143 11.9458 20.3362 11.8125 20.6719 11.8125C21.0075 11.8125 21.3295 11.9458 21.5668 12.1832C21.8042 12.4205 21.9375 12.7425 21.9375 13.0781V41.6982C21.9375 42.0338 21.8042 42.3558 21.5668 42.5931C21.3295 42.8305 21.0075 42.9638 20.6719 42.9638Z" fill="black"/>
<path d="M33.3281 42.9638C32.9925 42.9638 32.6705 42.8305 32.4332 42.5931C32.1958 42.3558 32.0625 42.0338 32.0625 41.6982V13.0781C32.0625 12.7425 32.1958 12.4205 32.4332 12.1832C32.6705 11.9458 32.9925 11.8125 33.3281 11.8125C33.6638 11.8125 33.9857 11.9458 34.2231 12.1832C34.4604 12.4205 34.5938 12.7425 34.5938 13.0781V41.6982C34.5938 42.0338 34.4604 42.3558 34.2231 42.5931C33.9857 42.8305 33.6638 42.9638 33.3281 42.9638Z" fill="black"/>
</svg>
