<svg width="54" height="54" viewBox="0 0 54 54" fill="none" xmlns="http://www.w3.org/2000/svg">
<path d="M10.3383 45.5528C10.0565 45.5524 9.78635 45.4401 9.5873 45.2407C9.4504 45.1045 9.35418 44.933 9.30947 44.7451C9.26475 44.5573 9.27332 44.3607 9.33419 44.1775L12.7851 33.3944C12.8649 33.1317 13.0101 32.8937 13.207 32.7026L32.0142 13.8953C32.2138 13.7035 32.4799 13.5964 32.7567 13.5964C33.0335 13.5964 33.2996 13.7035 33.4992 13.8953L40.9411 21.3288C41.1354 21.5288 41.2441 21.7966 41.2441 22.0754C41.2441 22.3543 41.1354 22.6222 40.9411 22.8222L22.1339 41.6209C21.939 41.8152 21.7024 41.9624 21.442 42.0513L10.6589 45.5022C10.5551 45.5347 10.447 45.5518 10.3383 45.5528ZM14.7679 34.12L11.9667 42.8697L20.7079 40.0685L38.7051 22.0713L32.7989 16.1651L14.7679 34.12Z" fill="black"/>
<path d="M40.1906 23.5647L31.2637 14.6379L35.3306 10.5794C35.7405 10.1679 36.2277 9.84145 36.7642 9.61867C37.3006 9.39588 37.8758 9.28125 38.4567 9.28125C39.0375 9.28125 39.6127 9.39588 40.1492 9.61867C40.6856 9.84145 41.1728 10.1679 41.5828 10.5794L44.2574 13.2457C45.0849 14.0774 45.5494 15.2029 45.5494 16.3761C45.5494 17.5493 45.0849 18.6747 44.2574 19.5064L40.1906 23.5647ZM34.2843 14.6379L40.1906 20.5442L42.764 18.0129C43.1968 17.5781 43.4398 16.9896 43.4398 16.3761C43.4398 15.7626 43.1968 15.174 42.764 14.7392L40.0978 12.0644C39.6615 11.6311 39.0716 11.3879 38.4567 11.3879C37.8418 11.3879 37.2518 11.6311 36.8156 12.0644L34.2843 14.6379Z" fill="black"/>
</svg>
