<svg width="54" height="54" viewBox="0 0 54 54" fill="none" xmlns="http://www.w3.org/2000/svg">
<path d="M26.8903 26.7806C25.1591 26.7806 23.4667 26.267 22.0275 25.3048C20.5882 24.3426 19.4668 22.9752 18.805 21.3754C18.1433 19.7756 17.971 18.0155 18.31 16.3177C18.649 14.62 19.484 13.061 20.7093 11.838C21.9347 10.615 23.4953 9.78303 25.1937 9.44733C26.8921 9.11163 28.6519 9.28729 30.2504 9.95212C31.8489 10.6169 33.2142 11.741 34.1736 13.1821C35.133 14.6232 35.6433 16.3165 35.64 18.0478C35.6333 20.3647 34.7088 22.5846 33.0688 24.2214C31.4289 25.8582 29.2073 26.7783 26.8903 26.7806ZM26.8903 11.3906C25.577 11.3906 24.2931 11.78 23.2012 12.5096C22.1092 13.2393 21.258 14.2764 20.7554 15.4897C20.2529 16.7031 20.1214 18.0383 20.3776 19.3264C20.6338 20.6145 21.2662 21.7976 22.1949 22.7263C23.1236 23.655 24.3068 24.2874 25.5949 24.5436C26.8829 24.7998 28.2181 24.6684 29.4314 24.1658C30.6448 23.6632 31.6819 22.812 32.4115 21.72C33.1412 20.628 33.5306 19.3442 33.5306 18.0309C33.5284 16.2704 32.8281 14.5827 31.5832 13.3379C30.3384 12.0931 28.6507 11.3928 26.8903 11.3906Z" fill="black"/>
<path d="M38.5507 42.1367C38.271 42.1367 38.0027 42.0255 37.8049 41.8277C37.6071 41.6299 37.496 41.3617 37.496 41.082C37.536 39.6634 37.2912 38.2513 36.776 36.929C36.2607 35.6068 35.4856 34.4013 34.4964 33.3838C33.5072 32.3663 32.324 31.5575 31.0168 31.0052C29.7096 30.4529 28.305 30.1683 26.8859 30.1683C25.4668 30.1683 24.0621 30.4529 22.7549 31.0052C21.4477 31.5575 20.2645 32.3663 19.2753 33.3838C18.2861 34.4013 17.511 35.6068 16.9958 36.929C16.4805 38.2513 16.2357 39.6634 16.2757 41.082C16.2757 41.3617 16.1646 41.6299 15.9668 41.8277C15.769 42.0255 15.5007 42.1367 15.221 42.1367C14.9413 42.1367 14.673 42.0255 14.4752 41.8277C14.2774 41.6299 14.1663 41.3617 14.1663 41.082C14.1226 39.384 14.4192 37.6945 15.0388 36.1131C15.6583 34.5316 16.5883 33.0902 17.7737 31.8738C18.9592 30.6575 20.3761 29.6908 21.9411 29.0307C23.5061 28.3707 25.1874 28.0305 26.8859 28.0305C28.5844 28.0305 30.2656 28.3707 31.8306 29.0307C33.3956 29.6908 34.8126 30.6575 35.998 31.8738C37.1834 33.0902 38.1134 34.5316 38.7329 36.1131C39.3525 37.6945 39.6491 39.384 39.6054 41.082C39.6054 41.3617 39.4943 41.6299 39.2965 41.8277C39.0987 42.0255 38.8304 42.1367 38.5507 42.1367Z" fill="black"/>
<path d="M10.4029 30.0881C9.08459 30.0881 7.79586 29.6971 6.6997 28.9647C5.60355 28.2323 4.7492 27.1912 4.2447 25.9732C3.74019 24.7553 3.60819 23.415 3.86539 22.122C4.12258 20.829 4.75741 19.6413 5.68961 18.7091C6.62182 17.7769 7.80951 17.1421 9.10252 16.8849C10.3955 16.6277 11.7358 16.7597 12.9537 17.2642C14.1717 17.7688 15.2128 18.623 15.9452 19.7192C16.6776 20.8153 17.0685 22.1041 17.0685 23.4224C17.0663 25.1896 16.3633 26.8837 15.1138 28.1333C13.8642 29.3829 12.1701 30.0858 10.4029 30.0881ZM10.4029 18.8662C9.50179 18.8662 8.62087 19.1334 7.8716 19.634C7.12233 20.1346 6.53835 20.8462 6.1935 21.6788C5.84865 22.5113 5.7584 23.4275 5.93421 24.3113C6.11001 25.1951 6.54396 26.007 7.18116 26.6442C7.81837 27.2814 8.63022 27.7153 9.51404 27.8912C10.3979 28.067 11.314 27.9768 12.1465 27.6319C12.9791 27.2871 13.6907 26.7031 14.1913 25.9538C14.692 25.2045 14.9592 24.3236 14.9592 23.4224C14.9525 22.2184 14.4695 21.0661 13.6158 20.2171C12.762 19.3681 11.6069 18.8915 10.4029 18.8915V18.8662Z" fill="black"/>
<path d="M1.89844 41.4363C1.61872 41.4363 1.35046 41.3252 1.15266 41.1274C0.954871 40.9296 0.84375 40.6614 0.84375 40.3816C0.847112 38.6871 1.30046 37.0238 2.15742 35.5619C3.01439 34.1 4.24425 32.8919 5.72122 32.0611C7.19819 31.2304 8.86928 30.8068 10.5636 30.8337C12.258 30.8606 13.9148 31.337 15.3647 32.2142C15.4918 32.2816 15.6039 32.3742 15.6939 32.4865C15.7839 32.5988 15.85 32.7283 15.8881 32.8671C15.9261 33.0059 15.9354 33.1509 15.9154 33.2934C15.8953 33.4359 15.8462 33.5728 15.7712 33.6956C15.6963 33.8184 15.597 33.9247 15.4794 34.0077C15.3619 34.0907 15.2286 34.1488 15.0877 34.1783C14.9469 34.2079 14.8015 34.2084 14.6605 34.1797C14.5195 34.151 14.3859 34.0937 14.2678 34.0114C13.1374 33.3287 11.8461 32.9583 10.5257 32.9382C9.20534 32.918 7.90329 33.2488 6.7526 33.8966C5.60191 34.5445 4.64384 35.4862 3.9763 36.6255C3.30875 37.7649 2.95567 39.0611 2.95312 40.3816C2.95312 40.6614 2.842 40.9296 2.64421 41.1274C2.44642 41.3252 2.17816 41.4363 1.89844 41.4363Z" fill="black"/>
<path d="M43.3772 30.0881C42.0585 30.0898 40.7689 29.7002 39.6717 28.9688C38.5744 28.2374 37.7187 27.197 37.2129 25.9791C36.7071 24.7613 36.5739 23.4208 36.8302 22.1272C37.0864 20.8337 37.7206 19.6451 38.6525 18.7121C39.5843 17.779 40.772 17.1434 42.0653 16.8855C43.3585 16.6277 44.6992 16.7592 45.9176 17.2634C47.1361 17.7677 48.1776 18.622 48.9104 19.7184C49.6432 20.8147 50.0344 22.1037 50.0344 23.4224C50.0322 25.1881 49.3303 26.881 48.0826 28.1303C46.8348 29.3796 45.1429 30.0836 43.3772 30.0881ZM43.3772 18.8662C42.4757 18.8645 41.594 19.1304 40.8436 19.63C40.0932 20.1296 39.5079 20.8406 39.1618 21.673C38.8156 22.5054 38.7242 23.4218 38.899 24.3061C39.0739 25.1905 39.5072 26.0031 40.144 26.6412C40.7809 27.2792 41.5927 27.7141 42.4768 27.8905C43.3608 28.067 44.2774 27.9772 45.1104 27.6326C45.9434 27.288 46.6555 26.7041 47.1566 25.9546C47.6576 25.2052 47.925 24.3239 47.925 23.4224C47.9183 22.2199 47.4365 21.0687 46.5846 20.22C45.7327 19.3712 44.5798 18.8937 43.3772 18.8915V18.8662Z" fill="black"/>
<path d="M51.8827 41.4363C51.603 41.4363 51.3347 41.3252 51.1369 41.1274C50.9391 40.9296 50.828 40.6614 50.828 40.3816C50.8255 39.0611 50.4724 37.7649 49.8048 36.6255C49.1373 35.4862 48.1792 34.5445 47.0286 33.8966C45.8779 33.2488 44.5758 32.918 43.2554 32.9382C41.935 32.9583 40.6437 33.3287 39.5133 34.0114C39.3953 34.0937 39.2616 34.151 39.1206 34.1797C38.9796 34.2084 38.8342 34.2079 38.6934 34.1783C38.5525 34.1488 38.4193 34.0907 38.3017 34.0077C38.1842 33.9247 38.0849 33.8184 38.0099 33.6956C37.9349 33.5728 37.8859 33.4359 37.8658 33.2934C37.8457 33.1509 37.855 33.0059 37.8931 32.8671C37.9312 32.7283 37.9972 32.5988 38.0872 32.4865C38.1773 32.3742 38.2893 32.2816 38.4164 32.2142C39.8663 31.337 41.5232 30.8606 43.2175 30.8337C44.9119 30.8068 46.583 31.2304 48.0599 32.0611C49.5369 32.8919 50.7668 34.1 51.6237 35.5619C52.4807 37.0238 52.934 38.6871 52.9374 40.3816C52.9374 40.6614 52.8263 40.9296 52.6285 41.1274C52.4307 41.3252 52.1624 41.4363 51.8827 41.4363Z" fill="black"/>
</svg>
