<svg width="54" height="54" viewBox="0 0 54 54" fill="none" xmlns="http://www.w3.org/2000/svg">
<path d="M26.8136 27.54C24.6735 27.5417 22.581 26.9085 20.8009 25.7206C19.0208 24.5326 17.633 22.8434 16.8133 20.8665C15.9935 18.8897 15.7786 16.714 16.1957 14.6149C16.6128 12.5159 17.6432 10.5877 19.1565 9.07443C20.6697 7.56116 22.5979 6.53079 24.6969 6.11369C26.796 5.69658 28.9716 5.91151 30.9485 6.73126C32.9254 7.551 34.6147 8.93876 35.8026 10.7189C36.9905 12.499 37.6237 14.5915 37.622 16.7316C37.6176 19.5968 36.4774 22.3433 34.4514 24.3694C32.4254 26.3954 29.6788 27.5355 26.8136 27.54ZM26.8136 8.02407C25.091 8.0224 23.4067 8.53167 21.9737 9.48745C20.5406 10.4432 19.4232 11.8026 18.7629 13.3935C18.1025 14.9844 17.9289 16.7356 18.2639 18.4252C18.599 20.1149 19.4276 21.6672 20.645 22.8858C21.8625 24.1044 23.414 24.9345 25.1033 25.2712C26.7926 25.6079 28.5438 25.4359 30.1354 24.7771C31.727 24.1183 33.0874 23.0022 34.0446 21.5701C35.0017 20.138 35.5126 18.4542 35.5126 16.7316C35.5104 14.4244 34.5935 12.2122 32.9628 10.5799C31.3321 8.94769 29.1208 8.02854 26.8136 8.02407Z" fill="black"/>
<path d="M41.6053 48.6085C41.3256 48.6085 41.0573 48.4974 40.8595 48.2996C40.6617 48.1018 40.5506 47.8335 40.5506 47.5538V45.1407C40.5506 41.4976 39.1034 38.0038 36.5274 35.4278C33.9513 32.8518 30.4575 31.4045 26.8144 31.4045C23.1713 31.4045 19.6774 32.8518 17.1014 35.4278C14.5253 38.0038 13.0781 41.4976 13.0781 45.1407V47.5538C13.0781 47.8335 12.967 48.1018 12.7692 48.2996C12.5714 48.4974 12.3032 48.6085 12.0234 48.6085C11.7437 48.6085 11.4755 48.4974 11.2777 48.2996C11.0799 48.1018 10.9688 47.8335 10.9688 47.5538V45.1407C10.9687 40.9382 12.6382 36.9078 15.6098 33.9362C18.5815 30.9646 22.6119 29.2952 26.8144 29.2952C31.0169 29.2952 35.0473 30.9646 38.0189 33.9362C40.9906 36.9078 42.66 40.9382 42.66 45.1407V47.5538C42.66 47.8335 42.5489 48.1018 42.3511 48.2996C42.1533 48.4974 41.885 48.6085 41.6053 48.6085Z" fill="black"/>
</svg>
