<svg width="54" height="54" viewBox="0 0 54 54" fill="none" xmlns="http://www.w3.org/2000/svg">
<path d="M34.83 49.1822H18.5625C17.2198 49.1822 15.9322 48.6488 14.9828 47.6994C14.0334 46.75 13.5 45.4624 13.5 44.1197V10.125C13.5 8.78234 14.0334 7.49465 14.9828 6.54524C15.9322 5.59584 17.2198 5.0625 18.5625 5.0625H34.83C36.1726 5.0625 37.4603 5.59584 38.4097 6.54524C39.3591 7.49465 39.8925 8.78234 39.8925 10.125V44.1282C39.8902 45.4694 39.3559 46.7548 38.4067 47.7024C37.4576 48.6499 36.1712 49.1822 34.83 49.1822ZM18.5625 6.75C17.6674 6.75 16.8089 7.10563 16.176 7.73856C15.5431 8.3715 15.1875 9.22989 15.1875 10.125V44.1282C15.1875 45.0233 15.5431 45.8817 16.176 46.5146C16.8089 47.1475 17.6674 47.5032 18.5625 47.5032H34.83C35.7251 47.5032 36.5835 47.1475 37.2165 46.5146C37.8494 45.8817 38.205 45.0233 38.205 44.1282V10.125C38.205 9.22989 37.8494 8.3715 37.2165 7.73856C36.5835 7.10563 35.7251 6.75 34.83 6.75H18.5625Z" fill="black"/>
<path d="M29.6828 10.8928H23.5234C23.2997 10.8928 23.0851 10.8039 22.9268 10.6456C22.7686 10.4874 22.6797 10.2728 22.6797 10.0491C22.6797 9.8253 22.7686 9.61065 22.9268 9.45241C23.0851 9.29418 23.2997 9.20532 23.5234 9.20532H29.6828C29.9066 9.20532 30.1212 9.29418 30.2794 9.45241C30.4376 9.61065 30.5266 9.8253 30.5266 10.0491C30.5266 10.2728 30.4376 10.4874 30.2794 10.6456C30.1212 10.8039 29.9066 10.8928 29.6828 10.8928Z" fill="black"/>
<path d="M26.6959 44.7018C28.3455 44.7018 29.6827 43.3645 29.6827 41.7149C29.6827 40.0653 28.3455 38.728 26.6959 38.728C25.0462 38.728 23.709 40.0653 23.709 41.7149C23.709 43.3645 25.0462 44.7018 26.6959 44.7018Z" fill="black"/>
</svg>
