<svg width="54" height="54" viewBox="0 0 54 54" fill="none" xmlns="http://www.w3.org/2000/svg">
<path d="M15.3985 43.8619C15.2118 43.8612 15.0286 43.8119 14.8669 43.7186C14.7065 43.627 14.5735 43.4942 14.4815 43.334C14.3895 43.1738 14.342 42.9919 14.3438 42.8072V11.1835C14.3431 10.9985 14.3912 10.8165 14.4831 10.6559C14.5749 10.4952 14.7075 10.3617 14.8673 10.2685C15.0272 10.1753 15.2088 10.1258 15.3939 10.125C15.5789 10.1242 15.7609 10.1721 15.9216 10.2638L43.2422 26.0842C43.4037 26.1774 43.5378 26.3114 43.6311 26.4729C43.7244 26.6343 43.7736 26.8174 43.7738 27.0038C43.773 27.189 43.7234 27.3708 43.6301 27.5308C43.5368 27.6907 43.403 27.8233 43.2422 27.9151L15.8541 43.727C15.7143 43.8058 15.5586 43.8519 15.3985 43.8619ZM16.4532 13.006V40.9848L40.6773 26.9954L16.4532 13.006Z" fill="black"/>
</svg>
