<svg width="54" height="54" viewBox="0 0 54 54" fill="none" xmlns="http://www.w3.org/2000/svg">
<path d="M27.2117 36.7455C25.3244 36.7455 23.4793 36.1859 21.91 35.1373C20.3407 34.0887 19.1176 32.5983 18.3953 30.8546C17.673 29.1108 17.4841 27.1921 17.8523 25.3409C18.2205 23.4898 19.1294 21.7895 20.464 20.4549C21.7985 19.1203 23.4989 18.2115 25.35 17.8433C27.2012 17.4751 29.1199 17.664 30.8636 18.3863C32.6073 19.1086 34.0977 20.3316 35.1463 21.901C36.1949 23.4703 36.7546 25.3153 36.7546 27.2027C36.7523 29.7329 35.7462 32.1588 33.9571 33.948C32.1679 35.7371 29.742 36.7432 27.2117 36.7455ZM27.2117 19.7692C25.7416 19.7692 24.3044 20.2052 23.0819 21.022C21.8595 21.8388 20.9067 22.9998 20.3441 24.358C19.7815 25.7163 19.6343 27.211 19.9211 28.6529C20.2079 30.0949 20.9159 31.4194 21.9555 32.459C22.9951 33.4985 24.3196 34.2065 25.7616 34.4933C27.2035 34.7802 28.6981 34.633 30.0564 34.0703C31.4147 33.5077 32.5756 32.5549 33.3924 31.3325C34.2092 30.1101 34.6452 28.6729 34.6452 27.2027C34.643 25.2319 33.8591 23.3425 32.4655 21.9489C31.072 20.5554 29.1825 19.7715 27.2117 19.7692Z" fill="black"/>
<path d="M29.295 48.5072H25.3969C25.2071 48.5077 25.0208 48.457 24.8575 48.3605C24.6941 48.264 24.5598 48.1252 24.4688 47.9587L22.0556 43.5206C21.2227 43.2544 20.4105 42.9272 19.6256 42.5418L14.6644 44.0016C14.4827 44.0571 14.2893 44.062 14.105 44.0159C13.9206 43.9698 13.7524 43.8745 13.6181 43.74L10.8591 40.9809C10.7261 40.8457 10.6318 40.6774 10.5858 40.4934C10.5398 40.3094 10.5438 40.1165 10.5975 39.9347L12.0319 35.0915C11.6246 34.3132 11.2803 33.5034 11.0025 32.67L6.46311 30.2146C6.29449 30.1254 6.1535 29.9918 6.05534 29.8282C5.95719 29.6646 5.90564 29.4773 5.90626 29.2865V25.3969C5.90564 25.2061 5.95719 25.0188 6.05534 24.8552C6.1535 24.6916 6.29449 24.558 6.46311 24.4688L10.9012 22.0556C11.1636 21.2186 11.4909 20.4033 11.88 19.6172L10.4119 14.6644C10.3574 14.4819 10.3538 14.288 10.4013 14.1037C10.4489 13.9193 10.5459 13.7515 10.6819 13.6181L13.4325 10.8591C13.5677 10.7261 13.7361 10.6317 13.92 10.5857C14.104 10.5397 14.2969 10.5438 14.4787 10.5974L19.3303 12.0319C20.1067 11.6267 20.9136 11.2824 21.7435 11.0024L24.2072 6.46315C24.2979 6.29573 24.4318 6.15572 24.5951 6.05776C24.7583 5.9598 24.9449 5.90746 25.1353 5.90625H29.0334C29.2234 5.90921 29.4093 5.96225 29.5723 6.06002C29.7353 6.1578 29.8695 6.29688 29.9616 6.46315L32.3662 10.9012C33.2037 11.1622 34.0191 11.4895 34.8047 11.88L39.7575 10.4118C39.94 10.3574 40.1338 10.3538 40.3182 10.4013C40.5025 10.4489 40.6704 10.546 40.8037 10.6819L43.5628 13.4409C43.6958 13.5743 43.7903 13.7412 43.8363 13.9238C43.8824 14.1065 43.8783 14.2983 43.8244 14.4788L42.3984 19.3303C42.7967 20.1101 43.1406 20.9163 43.4278 21.7435L47.9672 24.2071C48.1336 24.2982 48.2724 24.4325 48.369 24.5958C48.4655 24.7592 48.5162 24.9455 48.5156 25.1352V29.0335C48.5162 29.2232 48.4655 29.4095 48.369 29.5729C48.2724 29.7362 48.1336 29.8705 47.9672 29.9616L43.5291 32.3662C43.26 33.2021 42.93 34.0171 42.5419 34.8047L44.01 39.7659C44.0639 39.9465 44.068 40.1381 44.022 40.3208C43.9759 40.5035 43.8814 40.6703 43.7484 40.8037L40.9894 43.5628C40.8557 43.6981 40.6874 43.7941 40.5029 43.8402C40.3184 43.8863 40.1248 43.8808 39.9432 43.8243L35.1 42.39C34.3221 42.7945 33.5156 43.1414 32.6869 43.4278L30.2231 47.9672C30.131 48.132 29.9962 48.2691 29.8329 48.3641C29.6697 48.4591 29.4839 48.5085 29.295 48.5072ZM26.0213 46.3978H28.6622L31.0332 42.044C31.1609 41.8017 31.3793 41.6198 31.6406 41.5378C32.6216 41.2334 33.5688 40.8291 34.4672 40.3312C34.5931 40.2566 34.7336 40.2098 34.8791 40.1938C35.0246 40.1778 35.1718 40.193 35.3109 40.2384L39.9684 41.6222L41.8331 39.7491L40.4325 34.9903C40.3923 34.8596 40.3783 34.7222 40.3913 34.5861C40.4044 34.45 40.4442 34.3179 40.5085 34.1972C40.983 33.2892 41.3674 32.3369 41.6559 31.3538C41.6926 31.2182 41.7563 31.0915 41.8433 30.9812C41.9303 30.871 42.0388 30.7796 42.1622 30.7125L46.4316 28.3922V25.7513L42.0778 23.3887C41.8344 23.2583 41.6524 23.0369 41.5716 22.7728C41.2678 21.7916 40.8635 20.8444 40.365 19.9463C40.291 19.8201 40.2444 19.6797 40.2284 19.5343C40.2124 19.3889 40.2273 19.2418 40.2722 19.1025L41.6559 14.445L39.7828 12.5719L35.0241 13.9809C34.8935 14.0216 34.756 14.0359 34.6199 14.0228C34.4837 14.0098 34.3515 13.9697 34.231 13.905C33.3269 13.422 32.3736 13.0373 31.3875 12.7575C31.2516 12.719 31.1248 12.6536 31.0147 12.5652C30.9045 12.4768 30.8132 12.3672 30.7463 12.2428L28.4259 7.9734H25.7344L23.3719 12.3356C23.2387 12.5768 23.0183 12.7578 22.7559 12.8419C21.7732 13.1416 20.8256 13.5462 19.9294 14.0485C19.8024 14.1206 19.6618 14.1654 19.5165 14.1799C19.3711 14.1944 19.2244 14.1784 19.0856 14.1328L14.4281 12.7575L12.555 14.6222L13.9641 19.3894C14.0043 19.52 14.0183 19.6574 14.0053 19.7935C13.9922 19.9296 13.9524 20.0618 13.8881 20.1824C13.4036 21.0858 13.0188 22.0392 12.7406 23.0259C12.702 23.1606 12.6365 23.2862 12.5481 23.395C12.4596 23.5038 12.35 23.5934 12.2259 23.6587L7.95656 25.979V28.6199L12.3187 30.9825C12.5604 31.119 12.7414 31.3422 12.825 31.6068C13.1262 32.5863 13.5307 33.531 14.0316 34.4249C14.1037 34.5519 14.1485 34.6926 14.163 34.838C14.1776 34.9833 14.1615 35.13 14.1159 35.2687L12.7406 39.9347L14.6138 41.8078L19.3725 40.3988C19.5032 40.3585 19.6405 40.3445 19.7766 40.3576C19.9127 40.3706 20.045 40.4104 20.1657 40.4747C21.0714 40.9542 22.0242 41.3387 23.0091 41.6222C23.1427 41.6606 23.2675 41.7252 23.3761 41.8121C23.4847 41.899 23.575 42.0064 23.6419 42.1284L26.0213 46.3978ZM27.2109 36.7453C25.3236 36.7453 23.4785 36.1856 21.9092 35.1371C20.3399 34.0885 19.1168 32.5981 18.3945 30.8544C17.6722 29.1106 17.4833 27.1918 17.8515 25.3407C18.2197 23.4896 19.1286 21.7892 20.4632 20.4547C21.7977 19.1201 23.4981 18.2113 25.3492 17.8431C27.2003 17.4749 29.1191 17.6638 30.8628 18.3861C32.6065 19.1083 34.0969 20.3314 35.1455 21.9007C36.1941 23.47 36.7538 25.3151 36.7538 27.2025C36.7515 29.7327 35.7454 32.1586 33.9563 33.9478C32.1671 35.7369 29.7412 36.743 27.2109 36.7453ZM27.2109 19.769C25.7407 19.769 24.3036 20.205 23.0811 21.0218C21.8587 21.8386 20.9059 22.9995 20.3433 24.3578C19.7807 25.7161 19.6335 27.2107 19.9203 28.6527C20.2071 30.0946 20.9151 31.4191 21.9547 32.4587C22.9943 33.4983 24.3188 34.2063 25.7607 34.4931C27.2027 34.7799 28.6973 34.6327 30.0556 34.0701C31.4139 33.5075 32.5748 32.5547 33.3916 31.3323C34.2084 30.1098 34.6444 28.6727 34.6444 27.2025C34.6421 25.2317 33.8583 23.3423 32.4647 21.9487C31.0712 20.5552 29.1817 19.7712 27.2109 19.769Z" fill="black"/>
<path d="M27.2117 36.7455C25.3244 36.7455 23.4793 36.1859 21.91 35.1373C20.3407 34.0887 19.1176 32.5983 18.3953 30.8546C17.673 29.1108 17.4841 27.1921 17.8523 25.3409C18.2205 23.4898 19.1294 21.7895 20.464 20.4549C21.7985 19.1203 23.4989 18.2115 25.35 17.8433C27.2012 17.4751 29.1199 17.664 30.8636 18.3863C32.6073 19.1086 34.0977 20.3316 35.1463 21.901C36.1949 23.4703 36.7546 25.3153 36.7546 27.2027C36.7523 29.7329 35.7462 32.1588 33.9571 33.948C32.1679 35.7371 29.742 36.7432 27.2117 36.7455ZM27.2117 19.7692C25.7416 19.7692 24.3044 20.2052 23.0819 21.022C21.8595 21.8388 20.9067 22.9998 20.3441 24.358C19.7815 25.7163 19.6343 27.211 19.9211 28.6529C20.2079 30.0949 20.9159 31.4194 21.9555 32.459C22.9951 33.4985 24.3196 34.2065 25.7616 34.4933C27.2035 34.7802 28.6981 34.633 30.0564 34.0703C31.4147 33.5077 32.5756 32.5549 33.3924 31.3325C34.2092 30.1101 34.6452 28.6729 34.6452 27.2027C34.643 25.2319 33.8591 23.3425 32.4655 21.9489C31.072 20.5554 29.1825 19.7715 27.2117 19.7692Z" fill="black"/>
</svg>
