<svg width="54" height="54" viewBox="0 0 54 54" fill="none" xmlns="http://www.w3.org/2000/svg">
<path d="M27.0384 33.5138C25.6817 33.5138 24.3554 33.1115 23.2274 32.3578C22.0993 31.604 21.22 30.5326 20.7008 29.2792C20.1816 28.0257 20.0459 26.6465 20.3105 25.3159C20.5752 23.9852 21.2285 22.7629 22.1879 21.8036C23.1472 20.8442 24.3695 20.1909 25.7002 19.9262C27.0308 19.6616 28.41 19.7974 29.6635 20.3166C30.9169 20.8358 31.9882 21.7149 32.742 22.843C33.4957 23.9711 33.8981 25.2974 33.8981 26.6541C33.8981 28.4734 33.1754 30.2182 31.8889 31.5046C30.6025 32.7911 28.8577 33.5138 27.0384 33.5138ZM27.0384 21.4904C26.0151 21.4904 25.0147 21.7939 24.164 22.3626C23.3133 22.9313 22.6504 23.7396 22.2591 24.6852C21.8679 25.6308 21.766 26.6712 21.9662 27.6747C22.1665 28.6782 22.6599 29.5998 23.3841 30.3228C24.1083 31.0458 25.0307 31.5378 26.0345 31.7364C27.0384 31.935 28.0786 31.8314 29.0236 31.4386C29.9685 31.0458 30.7757 30.3815 31.343 29.5299C31.9103 28.6782 32.2123 27.6774 32.2106 26.6541C32.2117 25.9742 32.0787 25.3007 31.8193 24.6722C31.5599 24.0437 31.179 23.4725 30.6986 22.9913C30.2182 22.5101 29.6477 22.1284 29.0196 21.8679C28.3916 21.6075 27.7183 21.4735 27.0384 21.4735V21.4904Z" fill="black"/>
<path d="M27.0397 15.8623C25.6518 15.866 24.2944 15.4552 23.1414 14.6826C21.9884 13.9099 21.0924 12.8105 20.5682 11.5254C20.4832 11.3184 20.4838 11.0861 20.57 10.8796C20.6563 10.6731 20.821 10.5094 21.028 10.4244C21.235 10.3394 21.4673 10.34 21.6738 10.4262C21.8803 10.5125 22.0441 10.6772 22.1291 10.8842C22.5285 11.8585 23.2087 12.692 24.0831 13.2786C24.9576 13.8652 25.9868 14.1784 27.0397 14.1784C28.0927 14.1784 29.1219 13.8652 29.9964 13.2786C30.8708 12.692 31.551 11.8585 31.9504 10.8842C32.0354 10.6772 32.1992 10.5125 32.4057 10.4262C32.6122 10.34 32.8445 10.3394 33.0515 10.4244C33.2584 10.5094 33.4232 10.6731 33.5094 10.8796C33.5957 11.0861 33.5963 11.3184 33.5113 11.5254C32.987 12.8105 32.091 13.9099 30.9381 14.6826C29.7851 15.4552 28.4277 15.866 27.0397 15.8623Z" fill="black"/>
<path d="M27.039 9.82968C26.0964 9.83009 25.1713 9.57541 24.3617 9.09263C23.5522 8.60985 22.8883 7.91698 22.4406 7.08749C22.3287 6.89056 22.2996 6.65728 22.3597 6.43892C22.4199 6.22055 22.5643 6.035 22.7612 5.92311C22.9581 5.81122 23.1915 5.78223 23.4098 5.84236C23.6282 5.90249 23.8137 6.04682 23.9256 6.24374C24.2281 6.80614 24.6773 7.27612 25.2255 7.60371C25.7737 7.93129 26.4004 8.10427 27.039 8.10427C27.6777 8.10427 28.3044 7.93129 28.8526 7.60371C29.4008 7.27612 29.85 6.80614 30.1525 6.24374C30.2055 6.14604 30.2773 6.05984 30.3637 5.98995C30.4501 5.92007 30.5495 5.86795 30.6561 5.83659C30.7627 5.80523 30.8745 5.79517 30.985 5.80713C31.0955 5.8191 31.2025 5.85287 31.3 5.90632C31.495 6.01333 31.64 6.19304 31.7032 6.40637C31.7664 6.6197 31.7428 6.84936 31.6375 7.04536C31.1933 7.88095 30.5314 8.58084 29.7219 9.071C28.9124 9.56116 27.9854 9.82327 27.039 9.82968Z" fill="black"/>
<path d="M27.0391 21.4734C26.8153 21.4734 26.6007 21.3845 26.4425 21.2263C26.2842 21.0681 26.1953 20.8534 26.1953 20.6296V4.21875C26.1953 3.99497 26.2842 3.78032 26.4425 3.62209C26.6007 3.46386 26.8153 3.375 27.0391 3.375C27.2628 3.375 27.4774 3.46386 27.6357 3.62209C27.7939 3.78032 27.8828 3.99497 27.8828 4.21875V20.6296C27.8828 20.8534 27.7939 21.0681 27.6357 21.2263C27.4774 21.3845 27.2628 21.4734 27.0391 21.4734Z" fill="black"/>
<path d="M11.6491 24.7641C11.3329 24.7626 11.0172 24.74 10.7041 24.6966C10.5933 24.6822 10.4864 24.6461 10.3895 24.5904C10.2927 24.5347 10.2077 24.4605 10.1396 24.3719C10.0714 24.2834 10.0213 24.1822 9.99224 24.0744C9.96314 23.9665 9.95559 23.8539 9.96999 23.7431C9.9844 23.6323 10.0205 23.5255 10.0762 23.4287C10.1319 23.3318 10.2062 23.2469 10.2947 23.1787C10.3832 23.1105 10.4843 23.0604 10.5922 23.0313C10.7001 23.0022 10.8126 22.9947 10.9234 23.0091C11.9668 23.1503 13.0286 22.9779 13.9738 22.514C14.9189 22.05 15.7047 21.3154 16.2312 20.4036C16.7577 19.4917 17.001 18.4439 16.9303 17.3934C16.8596 16.3429 16.478 15.3371 15.8341 14.5041C15.698 14.3272 15.6376 14.1035 15.666 13.8821C15.6945 13.6607 15.8095 13.4596 15.9859 13.3228C16.1618 13.1858 16.3848 13.1241 16.6062 13.1509C16.8275 13.1778 17.0292 13.2912 17.1672 13.4663C17.9652 14.5007 18.458 15.7376 18.5899 17.0373C18.7217 18.3371 18.4874 19.6478 17.9133 20.8213C17.3393 21.9949 16.4484 22.9845 15.3414 23.6782C14.2344 24.372 12.9555 24.7423 11.6491 24.7472V24.7641Z" fill="black"/>
<path d="M7.93639 20.8575H7.79297C7.56919 20.8575 7.35457 20.7686 7.19633 20.6103C7.0381 20.4521 6.94922 20.2375 6.94922 20.0138C6.94922 19.79 7.0381 19.5753 7.19633 19.4171C7.35457 19.2589 7.56919 19.17 7.79297 19.17H7.91108C8.54058 19.1677 9.15815 18.9981 9.70057 18.6786C10.243 18.3592 10.6908 17.9014 10.9981 17.352C11.3054 16.8026 11.4612 16.1814 11.4496 15.5521C11.4379 14.9227 11.2592 14.3076 10.9317 13.77C10.8529 13.6761 10.7954 13.5661 10.7634 13.4477C10.7314 13.3293 10.7256 13.2053 10.7464 13.0845C10.7672 12.9636 10.8141 12.8488 10.8839 12.7479C10.9536 12.647 11.0445 12.5624 11.1502 12.5003C11.2559 12.4381 11.3739 12.3997 11.4959 12.3878C11.618 12.3759 11.7412 12.3907 11.8569 12.4312C11.9727 12.4718 12.0782 12.5371 12.1661 12.6226C12.2541 12.7081 12.3223 12.8117 12.3661 12.9263C12.8547 13.7182 13.1228 14.6263 13.1427 15.5567C13.1626 16.487 12.9336 17.4059 12.4793 18.218C12.0251 19.0302 11.3621 19.7062 10.5589 20.1762C9.75577 20.6462 8.84164 20.8931 7.91108 20.8913L7.93639 20.8575Z" fill="black"/>
<path d="M21.8333 24.494C21.6855 24.495 21.54 24.4572 21.4114 24.3843L7.20265 16.1746C7.10181 16.1219 7.01269 16.0493 6.94065 15.9612C6.8686 15.8731 6.81513 15.7714 6.78342 15.6621C6.75172 15.5528 6.74243 15.4383 6.75615 15.3253C6.76988 15.2123 6.80632 15.1033 6.86327 15.0048C6.92022 14.9062 6.99651 14.8203 7.08755 14.752C7.17859 14.6837 7.28248 14.6346 7.39301 14.6075C7.50354 14.5804 7.6184 14.576 7.73068 14.5944C7.84297 14.6129 7.95036 14.6539 8.04639 14.7149L22.2552 22.9162C22.4177 23.0083 22.5451 23.1517 22.6173 23.324C22.6895 23.4963 22.7025 23.6878 22.6543 23.8683C22.606 24.0487 22.4992 24.2081 22.3506 24.3213C22.2021 24.4346 22.0201 24.4953 21.8333 24.494Z" fill="black"/>
<path d="M16.5009 40.1541C16.3145 40.1535 16.1335 40.0912 15.9862 39.9769C15.8098 39.8402 15.6948 39.639 15.6663 39.4176C15.6378 39.1962 15.6982 38.9726 15.8343 38.7956C16.4782 37.9626 16.8598 36.9568 16.9305 35.9063C17.0013 34.8558 16.7579 33.808 16.2315 32.8962C15.705 31.9844 14.9192 31.2498 13.974 30.7858C13.0289 30.3218 11.9671 30.1494 10.9237 30.2906C10.7022 30.3193 10.4784 30.2591 10.3012 30.1231C10.1241 29.9871 10.0081 29.7864 9.9787 29.565C9.94995 29.3435 10.0102 29.1197 10.1462 28.9426C10.2822 28.7654 10.4829 28.6494 10.7043 28.62C12.0787 28.4349 13.4771 28.6625 14.7218 29.2739C15.9666 29.8853 17.0015 30.8529 17.695 32.0538C18.3886 33.2547 18.7096 34.6346 18.6172 36.0183C18.5247 37.402 18.023 38.727 17.1759 39.825C17.0964 39.9282 16.9941 40.0117 16.877 40.0688C16.7599 40.1259 16.6312 40.1551 16.5009 40.1541Z" fill="black"/>
<path d="M11.6743 40.8205C11.52 40.822 11.3682 40.7811 11.2355 40.7024C11.1405 40.6445 11.0579 40.5683 10.9924 40.4784C10.9269 40.3884 10.8799 40.2864 10.854 40.1781C10.8281 40.0699 10.8239 39.9576 10.8416 39.8477C10.8593 39.7379 10.8985 39.6326 10.9571 39.538C11.294 38.994 11.4774 38.3688 11.4877 37.729C11.4981 37.0891 11.335 36.4585 11.0157 35.9039C10.6964 35.3493 10.2329 34.8915 9.67444 34.5791C9.11595 34.2667 8.48329 34.1113 7.84362 34.1295C7.61984 34.1351 7.40302 34.0516 7.24083 33.8973C7.07864 33.743 6.98437 33.5307 6.97878 33.3069C6.97319 33.0831 7.05671 32.8663 7.21099 32.7041C7.36526 32.5419 7.57766 32.4476 7.80144 32.442C8.74306 32.4169 9.67396 32.6465 10.4959 33.1066C11.3179 33.5666 12.0004 34.2401 12.4713 35.0559C12.9423 35.8717 13.1842 36.7995 13.1717 37.7413C13.1591 38.6832 12.8924 39.6041 12.3999 40.407C12.3252 40.5329 12.219 40.6373 12.0918 40.7098C11.9646 40.7823 11.8207 40.8205 11.6743 40.8205Z" fill="black"/>
<path d="M7.62406 38.7111C7.43724 38.7124 7.25526 38.6516 7.10668 38.5384C6.95809 38.4251 6.8513 38.2658 6.80304 38.0853C6.75479 37.9048 6.76781 37.7134 6.84004 37.5411C6.91228 37.3688 7.03964 37.2254 7.20218 37.1333L21.411 28.932C21.507 28.8709 21.6144 28.8299 21.7266 28.8115C21.8389 28.793 21.9538 28.7975 22.0643 28.8245C22.1748 28.8516 22.2788 28.9008 22.3698 28.9691C22.4608 29.0373 22.5371 29.1233 22.5941 29.2218C22.651 29.3203 22.6875 29.4294 22.7012 29.5423C22.7149 29.6553 22.7057 29.7698 22.674 29.8791C22.6422 29.9884 22.5887 30.0902 22.5167 30.1782C22.4446 30.2663 22.3555 30.3389 22.2547 30.3916L8.04593 38.593C7.91937 38.6716 7.77304 38.7126 7.62406 38.7111Z" fill="black"/>
<path d="M32.734 42.9468C32.5659 42.9476 32.4015 42.8983 32.2617 42.8051C32.1219 42.7119 32.0131 42.5791 31.9493 42.4236C31.5499 41.4493 30.8697 40.6159 29.9953 40.0293C29.1208 39.4427 28.0916 39.1295 27.0386 39.1295C25.9857 39.1295 24.9565 39.4427 24.082 40.0293C23.2076 40.6159 22.5274 41.4493 22.128 42.4236C22.0438 42.6304 21.881 42.7953 21.6754 42.8823C21.4699 42.9693 21.2382 42.9712 21.0312 42.8877C20.9278 42.8461 20.8337 42.7843 20.7543 42.7061C20.6749 42.6278 20.6118 42.5346 20.5687 42.4318C20.5255 42.329 20.5032 42.2188 20.5029 42.1073C20.5027 41.9959 20.5245 41.8854 20.5671 41.7824C21.0936 40.4986 21.99 39.4004 23.1424 38.6275C24.2948 37.8546 25.6511 37.4419 27.0386 37.4419C28.4262 37.4419 29.7825 37.8546 30.9349 38.6275C32.0872 39.4004 32.9837 40.4986 33.5102 41.7824C33.5531 41.8848 33.5753 41.9948 33.5756 42.1059C33.5759 42.217 33.5543 42.327 33.5119 42.4297C33.4696 42.5324 33.4074 42.6257 33.3289 42.7043C33.2504 42.7829 33.1572 42.8453 33.0546 42.8877C32.9522 42.9269 32.8436 42.9469 32.734 42.9468Z" fill="black"/>
<path d="M23.1824 47.4694C23.0411 47.4701 22.9018 47.4352 22.7774 47.368C22.6797 47.315 22.5935 47.2433 22.5236 47.1569C22.4537 47.0705 22.4016 46.9711 22.3702 46.8645C22.3389 46.7578 22.3289 46.6461 22.3408 46.5356C22.3528 46.4251 22.3865 46.318 22.4399 46.2205C22.889 45.3926 23.5533 44.7013 24.3627 44.2195C25.172 43.7377 26.0965 43.4834 27.0384 43.4834C27.9803 43.4834 28.9047 43.7377 29.7141 44.2195C30.5234 44.7013 31.1877 45.3926 31.6368 46.2205C31.6922 46.318 31.7278 46.4256 31.7417 46.5368C31.7556 46.6481 31.7474 46.7611 31.7177 46.8692C31.6879 46.9773 31.6371 47.0785 31.5682 47.167C31.4993 47.2555 31.4137 47.3295 31.3162 47.3849C31.2187 47.4403 31.1112 47.476 30.9999 47.4899C30.8886 47.5037 30.7757 47.4955 30.6676 47.4658C30.5594 47.436 30.4582 47.3852 30.3697 47.3163C30.2812 47.2474 30.2072 47.1618 30.1518 47.0643C29.8473 46.5042 29.3974 46.0367 28.8495 45.7109C28.3015 45.3851 27.6759 45.2131 27.0384 45.2131C26.4009 45.2131 25.7752 45.3851 25.2273 45.7109C24.6793 46.0367 24.2294 46.5042 23.9249 47.0643C23.8478 47.1912 23.7385 47.2955 23.6081 47.3666C23.4777 47.4377 23.3309 47.4732 23.1824 47.4694Z" fill="black"/>
<path d="M27.0391 49.9246C26.8153 49.9246 26.6007 49.8357 26.4425 49.6775C26.2842 49.5192 26.1953 49.3046 26.1953 49.0808V32.6699C26.1953 32.4461 26.2842 32.2315 26.4425 32.0733C26.6007 31.915 26.8153 31.8262 27.0391 31.8262C27.2628 31.8262 27.4774 31.915 27.6357 32.0733C27.7939 32.2315 27.8828 32.4461 27.8828 32.6699V49.0808C27.8828 49.3046 27.7939 49.5192 27.6357 49.6775C27.4774 49.8357 27.2628 49.9246 27.0391 49.9246Z" fill="black"/>
<path d="M37.5775 40.154C37.4472 40.155 37.3185 40.1258 37.2014 40.0687C37.0843 40.0116 36.982 39.9282 36.9025 39.8249C36.0568 38.7261 35.5564 37.4009 35.4646 36.0173C35.3728 34.6338 35.6938 33.2541 36.3869 32.0531C37.08 30.8521 38.114 29.8841 39.3579 29.2714C40.6018 28.6587 41.9995 28.429 43.3741 28.6115C43.5979 28.6406 43.8009 28.7574 43.9386 28.9362C44.0763 29.115 44.1372 29.3411 44.1081 29.5649C44.079 29.7887 43.9622 29.9918 43.7834 30.1294C43.6046 30.2671 43.3785 30.3281 43.1547 30.299C42.1113 30.1578 41.0495 30.3302 40.1044 30.7942C39.1592 31.2581 38.3734 31.9928 37.847 32.9046C37.3205 33.8164 37.0771 34.8641 37.1479 35.9147C37.2186 36.9652 37.6002 37.971 38.2441 38.804C38.3401 38.9288 38.3993 39.0778 38.415 39.2345C38.4307 39.3911 38.4023 39.549 38.333 39.6903C38.2637 39.8316 38.1561 39.9508 38.0226 40.0342C37.8891 40.1176 37.7349 40.1621 37.5775 40.1625V40.154Z" fill="black"/>
<path d="M42.4368 40.829C42.2926 40.8284 42.151 40.7909 42.0255 40.72C41.8999 40.6491 41.7946 40.5472 41.7197 40.424C41.2241 39.6217 40.955 38.7001 40.941 37.7571C40.927 36.8142 41.1686 35.8849 41.6401 35.0682C42.1116 34.2515 42.7955 33.5776 43.6191 33.1183C44.4428 32.6589 45.3754 32.4311 46.3181 32.4591C46.5418 32.4591 46.7565 32.5479 46.9147 32.7062C47.073 32.8644 47.1618 33.0791 47.1618 33.3028C47.1618 33.5266 47.073 33.7412 46.9147 33.8994C46.7565 34.0576 46.5418 34.1466 46.3181 34.1466H46.2C45.5707 34.1472 44.9529 34.3153 44.4101 34.6337C43.8674 34.9521 43.4191 35.4092 43.1116 35.9582C42.804 36.5072 42.6482 37.1282 42.6601 37.7573C42.672 38.3865 42.8512 39.0012 43.1793 39.5382C43.2379 39.6328 43.2771 39.738 43.2948 39.8479C43.3125 39.9577 43.3083 40.0701 43.2824 40.1783C43.2565 40.2865 43.2095 40.3885 43.144 40.4785C43.0785 40.5685 42.9959 40.6446 42.9009 40.7025C42.7618 40.7889 42.6005 40.8328 42.4368 40.829Z" fill="black"/>
<path d="M46.4534 38.7111C46.3044 38.7126 46.1581 38.6716 46.0315 38.593L31.8228 30.3916C31.7219 30.3389 31.6328 30.2663 31.5608 30.1782C31.4887 30.0902 31.4352 29.9884 31.4035 29.8791C31.3718 29.7698 31.3626 29.6553 31.3763 29.5423C31.39 29.4294 31.4264 29.3203 31.4834 29.2218C31.5403 29.1233 31.6166 29.0373 31.7077 28.9691C31.7987 28.9008 31.9026 28.8516 32.0132 28.8245C32.1237 28.7975 32.2385 28.793 32.3508 28.8115C32.4631 28.8299 32.5705 28.8709 32.6665 28.932L46.8753 37.1333C47.0378 37.2254 47.1652 37.3688 47.2374 37.5411C47.3097 37.7134 47.3227 37.9048 47.2744 38.0853C47.2261 38.2658 47.1194 38.4251 46.9708 38.5384C46.8222 38.6516 46.6402 38.7124 46.4534 38.7111Z" fill="black"/>
<path d="M42.4375 24.7555C41.1318 24.7509 39.8534 24.3814 38.7466 23.6887C37.6399 22.9959 36.7488 22.0076 36.174 20.8352C35.5993 19.6629 35.3637 18.3532 35.4939 17.054C35.6241 15.7549 36.1149 14.518 36.9109 13.483C37.0485 13.3051 37.2512 13.1891 37.4743 13.1606C37.6974 13.1322 37.9227 13.1935 38.1006 13.3311C38.2785 13.4687 38.3944 13.6714 38.4229 13.8945C38.4514 14.1176 38.3901 14.3429 38.2525 14.5208C37.6085 15.3539 37.227 16.3596 37.1563 17.4101C37.0855 18.4606 37.3289 19.5084 37.8554 20.4203C38.3818 21.3321 39.1676 22.0667 40.1128 22.5307C41.0579 22.9946 42.1197 23.167 43.1631 23.0258C43.2739 23.0114 43.3864 23.0189 43.4943 23.048C43.6022 23.0771 43.7033 23.1272 43.7918 23.1954C43.8804 23.2636 43.9546 23.3484 44.0103 23.4453C44.066 23.5421 44.1021 23.649 44.1165 23.7598C44.1309 23.8706 44.1234 23.9832 44.0943 24.0911C44.0652 24.199 44.0151 24.3001 43.9469 24.3886C43.8788 24.4772 43.7939 24.5514 43.697 24.6071C43.6002 24.6628 43.4933 24.6989 43.3825 24.7133C43.0688 24.7483 42.7531 24.7625 42.4375 24.7555Z" fill="black"/>
<path d="M46.1495 20.8574C45.2182 20.8606 44.303 20.6148 43.4986 20.1454C42.6943 19.6761 42.0301 19.0002 41.5748 18.1878C41.1196 17.3754 40.8898 16.456 40.9094 15.5249C40.9289 14.5938 41.197 13.6849 41.686 12.8923C41.8143 12.7395 41.9926 12.6371 42.1892 12.6033C42.3858 12.5695 42.5881 12.6064 42.7601 12.7075C42.932 12.8087 43.0626 12.9676 43.1286 13.1559C43.1945 13.3442 43.1916 13.5497 43.1204 13.736C42.7935 14.2847 42.6209 14.9115 42.6209 15.5501C42.6209 16.1888 42.7935 16.8156 43.1204 17.3642C43.4358 17.9202 43.8974 18.3793 44.4552 18.6916C45.0129 19.004 45.6456 19.1577 46.2845 19.1361C46.5082 19.1361 46.7228 19.225 46.8811 19.3833C47.0393 19.5415 47.1282 19.756 47.1282 19.9798C47.1282 20.2036 47.0393 20.4182 46.8811 20.5765C46.7228 20.7347 46.5082 20.8236 46.2845 20.8236L46.1495 20.8574Z" fill="black"/>
<path d="M32.2451 24.494C32.0583 24.4953 31.8764 24.4347 31.7278 24.3214C31.5792 24.2082 31.4724 24.0488 31.4241 23.8683C31.3759 23.6878 31.3889 23.4964 31.4611 23.3241C31.5334 23.1518 31.6607 23.0083 31.8233 22.9162L46.032 14.715C46.1283 14.6592 46.2347 14.623 46.345 14.6085C46.4554 14.594 46.5675 14.6015 46.675 14.6305C46.7824 14.6596 46.8831 14.7095 46.9711 14.7776C47.0591 14.8457 47.1328 14.9305 47.188 15.0272C47.298 15.2209 47.3269 15.4503 47.2684 15.6652C47.2099 15.8802 47.0688 16.0634 46.8758 16.1747L32.667 24.3843C32.5384 24.4572 32.3929 24.495 32.2451 24.494Z" fill="black"/>
</svg>
