<svg width="54" height="54" viewBox="0 0 54 54" fill="none" xmlns="http://www.w3.org/2000/svg">
<path d="M50.4644 41.8585H3.55195C3.31901 41.8588 3.09252 41.7819 2.90783 41.64C2.72314 41.498 2.59065 41.299 2.53102 41.0738C1.60822 37.5893 1.44029 33.9479 2.03846 30.3932C2.63663 26.8386 3.9871 23.4526 5.99951 20.4621C8.01192 17.4715 10.6399 14.9453 13.7075 13.0524C16.7751 11.1594 20.2116 9.94354 23.7871 9.486C27.3625 9.02846 30.9945 9.3398 34.4399 10.3993C37.8853 11.4588 41.0647 13.2419 43.7653 15.6294C46.4659 18.0168 48.6255 20.9536 50.0995 24.2431C51.5734 27.5326 52.3279 31.0988 52.3122 34.7034C52.3008 36.854 52.0173 38.9944 51.4685 41.0738C51.4096 41.2962 51.2796 41.4933 51.0984 41.6349C50.9171 41.7766 50.6945 41.8551 50.4644 41.8585ZM4.34507 39.7491H49.6376C50.3881 36.3594 50.3681 32.8444 49.579 29.4635C48.79 26.0825 47.252 22.9218 45.0785 20.2145C42.9051 17.5071 40.1516 15.3223 37.0211 13.821C33.8907 12.3198 30.4632 11.5404 26.9913 11.5404C23.5195 11.5404 20.092 12.3198 16.9615 13.821C13.8311 15.3223 11.0776 17.5071 8.90412 20.2145C6.73066 22.9218 5.19269 26.0825 4.40363 29.4635C3.61457 32.8444 3.59456 36.3594 4.34507 39.7491Z" fill="black"/>
<path d="M26.9914 38.5678C26.167 38.5678 25.3611 38.3233 24.6756 37.8653C23.9902 37.4073 23.456 36.7563 23.1405 35.9947C22.8251 35.2331 22.7425 34.395 22.9033 33.5864C23.0642 32.7779 23.4611 32.0352 24.044 31.4523C24.6269 30.8694 25.3697 30.4724 26.1782 30.3115C26.9868 30.1507 27.8248 30.2333 28.5864 30.5487C29.3481 30.8642 29.999 31.3985 30.457 32.0839C30.915 32.7693 31.1595 33.5752 31.1595 34.3996C31.1595 34.9469 31.0517 35.489 30.8422 35.9947C30.6328 36.5004 30.3257 36.9599 29.9387 37.3469C29.5516 37.734 29.0921 38.041 28.5864 38.2504C28.0807 38.4599 27.5387 38.5678 26.9914 38.5678ZM26.9914 32.3493C26.5838 32.3493 26.1855 32.4702 25.8467 32.6968C25.508 32.9234 25.2441 33.2455 25.0885 33.6222C24.9329 33.9988 24.8927 34.4132 24.9728 34.8128C25.0529 35.2124 25.2498 35.5792 25.5386 35.8668C25.8274 36.1544 26.195 36.3498 26.5949 36.4283C26.9948 36.5068 27.409 36.4647 27.7851 36.3076C28.1611 36.1505 28.4821 35.8853 28.7073 35.5456C28.9325 35.206 29.0517 34.8071 29.0501 34.3996C29.0534 34.1271 29.0027 33.8566 28.9007 33.6039C28.7988 33.3512 28.6477 33.1213 28.4561 32.9274C28.2646 32.7336 28.0365 32.5797 27.7851 32.4747C27.5336 32.3696 27.2639 32.3155 26.9914 32.3155V32.3493Z" fill="black"/>
<path d="M26.9912 20.8406C26.7115 20.8406 26.4432 20.7295 26.2454 20.5317C26.0476 20.3339 25.9365 20.0656 25.9365 19.7859V15.2212C25.9365 14.9415 26.0476 14.6732 26.2454 14.4754C26.4432 14.2776 26.7115 14.1665 26.9912 14.1665C27.2709 14.1665 27.5392 14.2776 27.737 14.4754C27.9348 14.6732 28.0459 14.9415 28.0459 15.2212V19.7859C28.0459 20.0656 27.9348 20.3339 27.737 20.5317C27.5392 20.7295 27.2709 20.8406 26.9912 20.8406Z" fill="black"/>
<path d="M29.1936 33.2608C28.9124 33.2576 28.6432 33.1458 28.4427 32.9486C28.2483 32.7486 28.1396 32.4807 28.1396 32.2018C28.1396 31.923 28.2483 31.6551 28.4427 31.4551L34.138 25.7598C34.338 25.5655 34.6058 25.4568 34.8847 25.4568C35.1636 25.4568 35.4314 25.5655 35.6314 25.7598C35.7296 25.8578 35.8076 25.9741 35.8608 26.1023C35.9139 26.2304 35.9412 26.3678 35.9412 26.5065C35.9412 26.6453 35.9139 26.7827 35.8608 26.9108C35.8076 27.0389 35.7296 27.1553 35.6314 27.2533L29.9361 32.9486C29.7397 33.1468 29.4727 33.259 29.1936 33.2608Z" fill="black"/>
<path d="M19.6836 22.798C19.4969 22.7987 19.3135 22.7499 19.1519 22.6565C18.9903 22.5631 18.8565 22.4285 18.7639 22.2664L16.4857 18.3177C16.4165 18.1975 16.3716 18.0648 16.3536 17.9273C16.3357 17.7897 16.345 17.6499 16.381 17.5159C16.417 17.3819 16.4791 17.2563 16.5637 17.1463C16.6483 17.0364 16.7537 16.9441 16.8739 16.8749C16.9941 16.8056 17.1268 16.7608 17.2644 16.7428C17.4019 16.7248 17.5417 16.7341 17.6757 16.7701C17.8097 16.8061 17.9352 16.8683 18.0452 16.9528C18.1552 17.0374 18.2474 17.1428 18.3167 17.263L20.5948 21.2117C20.6643 21.3319 20.7094 21.4646 20.7275 21.6022C20.7456 21.7398 20.7364 21.8797 20.7003 22.0138C20.6642 22.1478 20.6021 22.2734 20.5174 22.3833C20.4327 22.4933 20.3271 22.5855 20.2067 22.6546C20.0488 22.7495 19.8678 22.7991 19.6836 22.798Z" fill="black"/>
<path d="M14.3267 28.1473C14.1425 28.1484 13.9615 28.0988 13.8036 28.0039L9.85482 25.7257C9.72635 25.6612 9.61241 25.5711 9.52003 25.461C9.42765 25.3508 9.35875 25.223 9.31759 25.0853C9.27642 24.9475 9.26387 24.8028 9.28066 24.66C9.29746 24.5172 9.34327 24.3794 9.41528 24.255C9.48729 24.1306 9.58397 24.0221 9.6994 23.9364C9.81482 23.8507 9.94655 23.7895 10.0865 23.7566C10.2264 23.7237 10.3716 23.7196 10.5131 23.7449C10.6547 23.7701 10.7896 23.824 10.9095 23.9033L14.8583 26.1813C15.0586 26.2981 15.2149 26.4776 15.3029 26.6921C15.391 26.9066 15.4059 27.1441 15.3453 27.3679C15.2848 27.5917 15.1523 27.7893 14.9681 27.9302C14.784 28.0711 14.5585 28.1475 14.3267 28.1473Z" fill="black"/>
<path d="M12.3688 35.4543H7.8125C7.53278 35.4543 7.26452 35.3433 7.06673 35.1455C6.86893 34.9477 6.75781 34.6794 6.75781 34.3997C6.75781 34.1199 6.86893 33.8517 7.06673 33.6539C7.26452 33.4561 7.53278 33.345 7.8125 33.345H12.3688C12.6485 33.345 12.9168 33.4561 13.1145 33.6539C13.3123 33.8517 13.4235 34.1199 13.4235 34.3997C13.4235 34.6794 13.3123 34.9477 13.1145 35.1455C12.9168 35.3433 12.6485 35.4543 12.3688 35.4543Z" fill="black"/>
<path d="M46.1696 35.4543H41.6133C41.3336 35.4543 41.0653 35.3433 40.8675 35.1455C40.6697 34.9477 40.5586 34.6794 40.5586 34.3997C40.5586 34.1199 40.6697 33.8517 40.8675 33.6539C41.0653 33.4561 41.3336 33.345 41.6133 33.345H46.1696C46.4493 33.345 46.7175 33.4561 46.9153 33.6539C47.1131 33.8517 47.2242 34.1199 47.2242 34.3997C47.2242 34.6794 47.1131 34.9477 46.9153 35.1455C46.7175 35.3433 46.4493 35.4543 46.1696 35.4543Z" fill="black"/>
<path d="M39.6558 28.1475C39.4239 28.1476 39.1985 28.0712 39.0144 27.9303C38.8302 27.7895 38.6977 27.5918 38.6372 27.368C38.5766 27.1442 38.5915 26.9067 38.6796 26.6922C38.7676 26.4777 38.9239 26.2982 39.1242 26.1815L43.073 23.8949C43.3158 23.7551 43.6042 23.7174 43.8748 23.7902C44.1454 23.863 44.3759 24.0402 44.5158 24.283C44.6557 24.5258 44.6933 24.8143 44.6205 25.0848C44.5478 25.3554 44.3705 25.5859 44.1277 25.7258L40.1789 28.004C40.021 28.0989 39.84 28.1485 39.6558 28.1475Z" fill="black"/>
<path d="M34.298 22.798C34.1136 22.8004 33.9323 22.7508 33.7749 22.6546C33.6545 22.5855 33.5489 22.4933 33.4642 22.3833C33.3795 22.2734 33.3174 22.1478 33.2813 22.0138C33.2453 21.8797 33.236 21.7398 33.2541 21.6022C33.2722 21.4646 33.3173 21.3319 33.3868 21.2117L35.6649 17.263C35.7342 17.1428 35.8264 17.0374 35.9364 16.9528C36.0464 16.8683 36.1719 16.8061 36.3059 16.7701C36.4399 16.7341 36.5797 16.7248 36.7172 16.7428C36.8548 16.7608 36.9875 16.8056 37.1077 16.8749C37.228 16.9441 37.3334 17.0364 37.4179 17.1463C37.5025 17.2563 37.5645 17.3819 37.6006 17.5159C37.6366 17.6499 37.646 17.7897 37.628 17.9273C37.61 18.0648 37.5651 18.1975 37.4958 18.3177L35.2178 22.2664C35.1245 22.4279 34.9905 22.562 34.829 22.6553C34.6676 22.7486 34.4845 22.7978 34.298 22.798Z" fill="black"/>
</svg>
