<svg width="54" height="54" viewBox="0 0 54 54" fill="none" xmlns="http://www.w3.org/2000/svg">
<path d="M20.3766 28.8479C17.6584 28.8456 15.0521 27.7648 13.13 25.8427C11.208 23.9207 10.1272 21.3145 10.125 18.5963V7.80469C10.125 7.52497 10.2361 7.25678 10.4339 7.05899C10.6317 6.8612 10.9 6.75 11.1797 6.75H16.0397C16.3194 6.75 16.5877 6.8612 16.7855 7.05899C16.9833 7.25678 17.0944 7.52497 17.0944 7.80469C17.0944 8.08441 16.9833 8.3527 16.7855 8.55049C16.5877 8.74828 16.3194 8.85938 16.0397 8.85938H12.2344V18.5963C12.2344 20.7557 13.0922 22.8267 14.6192 24.3537C16.1461 25.8807 18.2171 26.7385 20.3766 26.7385C22.536 26.7385 24.607 25.8807 26.134 24.3537C27.661 22.8267 28.5188 20.7557 28.5188 18.5963V8.85938H24.7135C24.4338 8.85938 24.1655 8.74828 23.9677 8.55049C23.7699 8.3527 23.6588 8.08441 23.6588 7.80469C23.6588 7.52497 23.7699 7.25678 23.9677 7.05899C24.1655 6.8612 24.4338 6.75 24.7135 6.75H29.5735C29.8532 6.75 30.1214 6.8612 30.3192 7.05899C30.517 7.25678 30.6282 7.52497 30.6282 7.80469V18.5963C30.6237 21.3138 29.5421 23.9188 27.6206 25.8404C25.699 27.7619 23.0941 28.8434 20.3766 28.8479Z" fill="black"/>
<path d="M38.1119 32.2482C36.9798 32.2499 35.8725 31.9155 34.9304 31.2875C33.9884 30.6596 33.254 29.7663 32.8199 28.7207C32.3859 27.675 32.2718 26.524 32.4923 25.4135C32.7128 24.3031 33.2578 23.283 34.0584 22.4824C34.8589 21.6819 35.879 21.1368 36.9895 20.9164C38.0999 20.6959 39.2508 20.81 40.2965 21.244C41.3421 21.678 42.2355 22.4126 42.8635 23.3546C43.4914 24.2967 43.8257 25.4038 43.824 26.536C43.8218 28.0503 43.2193 29.5019 42.1486 30.5726C41.0778 31.6434 39.6262 32.246 38.1119 32.2482ZM38.1119 22.9247C37.3973 22.923 36.6982 23.1334 36.1033 23.5292C35.5083 23.925 35.0441 24.4884 34.7695 25.1481C34.4948 25.8078 34.4222 26.5343 34.5606 27.2353C34.699 27.9364 35.0422 28.5806 35.5469 29.0865C36.0516 29.5924 36.695 29.9372 37.3958 30.0772C38.0965 30.2173 38.8231 30.1462 39.4834 29.8731C40.1438 29.6 40.7083 29.1372 41.1055 28.5432C41.5027 27.9491 41.7146 27.2506 41.7146 26.536C41.7146 25.5797 41.3354 24.6624 40.66 23.9854C39.9845 23.3084 39.0682 22.9269 38.1119 22.9247Z" fill="black"/>
<path d="M29.2697 47.9671C26.658 47.9918 24.1433 46.9797 22.2768 45.1528C20.4103 43.3259 19.3446 40.8333 19.3135 38.2217V27.793C19.3135 27.5132 19.4246 27.245 19.6224 27.0472C19.8202 26.8494 20.0884 26.7383 20.3682 26.7383C20.6479 26.7383 20.9162 26.8494 21.114 27.0472C21.3118 27.245 21.4229 27.5132 21.4229 27.793V38.2217C21.4897 40.2594 22.3461 42.1913 23.8111 43.6092C25.2762 45.027 27.2351 45.8196 29.2739 45.8196C31.3127 45.8196 33.2717 45.027 34.7367 43.6092C36.2018 42.1913 37.0582 40.2594 37.125 38.2217V31.2692C37.125 30.9895 37.2361 30.7212 37.4339 30.5234C37.6317 30.3256 37.9 30.2145 38.1797 30.2145C38.4594 30.2145 38.7277 30.3256 38.9255 30.5234C39.1233 30.7212 39.2344 30.9895 39.2344 31.2692V38.2217C39.2032 40.8348 38.1364 43.3286 36.2681 45.1558C34.3998 46.9829 31.8828 47.9941 29.2697 47.9671Z" fill="black"/>
</svg>
