<svg width="54" height="54" viewBox="0 0 54 54" fill="none" xmlns="http://www.w3.org/2000/svg">
<path d="M34.3495 35.3362C34.2118 35.3369 34.0754 35.3105 33.948 35.2583C33.8206 35.2062 33.7047 35.1295 33.607 35.0325L18.2845 19.7099C18.1863 19.612 18.1083 19.4956 18.0552 19.3675C18.002 19.2393 17.9746 19.102 17.9746 18.9633C17.9746 18.8246 18.002 18.6872 18.0552 18.5591C18.1083 18.4309 18.1863 18.3146 18.2845 18.2166C18.4845 18.0223 18.7523 17.9136 19.0312 17.9136C19.3101 17.9136 19.5779 18.0223 19.7779 18.2166L35.1004 33.5728C35.2947 33.7728 35.4034 34.0407 35.4034 34.3195C35.4034 34.5984 35.2947 34.8663 35.1004 35.0663C34.8937 35.2488 34.6251 35.3454 34.3495 35.3362Z" fill="black"/>
<path d="M19.0354 35.3361C18.7552 35.3362 18.4859 35.2272 18.2845 35.0324C18.1863 34.9344 18.1083 34.8181 18.0552 34.6899C18.002 34.5618 17.9746 34.4244 17.9746 34.2857C17.9746 34.1469 18.002 34.0097 18.0552 33.8815C18.1083 33.7534 18.1863 33.6369 18.2845 33.5389L33.607 18.2165C33.7051 18.1185 33.8214 18.0406 33.9496 17.9876C34.0777 17.9345 34.215 17.9072 34.3537 17.9072C34.4924 17.9072 34.6297 17.9345 34.7578 17.9876C34.886 18.0406 35.0023 18.1185 35.1004 18.2165C35.1985 18.3146 35.2762 18.431 35.3293 18.5591C35.3824 18.6872 35.4097 18.8246 35.4097 18.9633C35.4097 19.1019 35.3824 19.2392 35.3293 19.3673C35.2762 19.4954 35.1985 19.6118 35.1004 19.7099L19.7779 35.0324C19.6802 35.1294 19.5644 35.2062 19.437 35.2583C19.3095 35.3104 19.1731 35.3368 19.0354 35.3361Z" fill="black"/>
<path d="M33.4547 46.5413H19.9547C19.4846 46.5422 19.0191 46.4501 18.5847 46.2706C18.1503 46.0911 17.7556 45.8275 17.4234 45.495L7.79624 35.9269C7.12941 35.2528 6.75374 34.3439 6.75 33.3957V19.8957C6.74959 19.4257 6.84178 18.9603 7.0213 18.5259C7.20081 18.0916 7.46414 17.697 7.79624 17.3644L17.3644 7.79624C18.0385 7.12941 18.9474 6.75374 19.8956 6.75H33.3956C34.3439 6.75374 35.2527 7.12941 35.9269 7.79624L45.495 17.3644C45.8271 17.697 46.0904 18.0916 46.2699 18.5259C46.4495 18.9603 46.5416 19.4257 46.5412 19.8957V33.3957C46.5375 34.3439 46.1618 35.2528 45.495 35.9269L35.9269 45.495C35.2674 46.1478 34.3824 46.5223 33.4547 46.5413ZM19.9547 8.81725C19.5632 8.81884 19.1877 8.97325 18.9084 9.24757L9.34032 18.8157C9.20297 18.9529 9.09417 19.116 9.02031 19.2956C8.94644 19.4752 8.90897 19.6677 8.91 19.8619V33.3619C8.90977 33.7538 9.06446 34.1298 9.34032 34.4081L18.9084 43.9762C19.1867 44.2521 19.5628 44.4068 19.9547 44.4066H33.4547C33.8458 44.4032 34.2206 44.2491 34.5009 43.9762L44.0775 34.4166C44.3518 34.1373 44.5062 33.7619 44.5078 33.3704V19.8704C44.5088 19.6762 44.4713 19.4837 44.3975 19.3041C44.3236 19.1245 44.2148 18.9614 44.0775 18.8241L34.5093 9.25602C34.229 8.9832 33.8543 8.82905 33.4631 8.8257L19.9547 8.81725Z" fill="black"/>
</svg>
