<svg width="54" height="54" viewBox="0 0 54 54" fill="none" xmlns="http://www.w3.org/2000/svg">
<path d="M26.6963 47.4694C22.5853 47.471 18.5663 46.2534 15.1475 43.9706C11.7287 41.6877 9.06373 38.4422 7.48978 34.6445C5.91582 30.8468 5.50357 26.6676 6.30516 22.6356C7.10675 18.6036 9.08619 14.8999 11.9931 11.993C14.8999 9.08618 18.6036 7.10674 22.6356 6.30515C26.6676 5.50355 30.8468 5.91586 34.6445 7.48982C38.4422 9.06377 41.6877 11.7286 43.9706 15.1474C46.2534 18.5662 47.4711 22.5853 47.4694 26.6962C47.4605 32.2029 45.269 37.4815 41.3752 41.3753C37.4814 45.269 32.2029 47.4604 26.6963 47.4694ZM26.6963 8.02406C23.0029 8.02239 19.392 9.11609 16.3203 11.1668C13.2485 13.2175 10.854 16.1331 9.4394 19.5449C8.02486 22.9566 7.65387 26.7112 8.37339 30.3338C9.0929 33.9564 10.8706 37.2843 13.4816 39.8965C16.0926 42.5087 19.4197 44.2879 23.0419 45.0091C26.6642 45.7302 30.419 45.3609 33.8314 43.9479C37.2438 42.5349 40.1605 40.1416 42.2126 37.0708C44.2647 34 45.36 30.3896 45.36 26.6962C45.3533 21.7476 43.3851 17.0034 39.8867 13.5034C36.3882 10.0034 31.6449 8.03299 26.6963 8.02406Z" fill="black"/>
<path d="M37.9098 29.1937H24.7305V14.5715C24.7305 14.2918 24.8416 14.0235 25.0394 13.8257C25.2372 13.6279 25.5054 13.5168 25.7852 13.5168C26.0649 13.5168 26.3332 13.6279 26.531 13.8257C26.7287 14.0235 26.8398 14.2918 26.8398 14.5715V27.0843H37.9098C38.1896 27.0843 38.4578 27.1955 38.6556 27.3933C38.8534 27.5911 38.9645 27.8593 38.9645 28.139C38.9645 28.4187 38.8534 28.687 38.6556 28.8848C38.4578 29.0826 38.1896 29.1937 37.9098 29.1937Z" fill="black"/>
</svg>
