<svg width="54" height="54" viewBox="0 0 54 54" fill="none" xmlns="http://www.w3.org/2000/svg">
<path d="M47.7985 45.0225H6.11719C5.16682 45.0203 4.25604 44.6418 3.58403 43.9698C2.91202 43.2977 2.53348 42.3869 2.53125 41.4366V12.0234C2.53348 11.0731 2.91202 10.1622 3.58403 9.49023C4.25604 8.81822 5.16682 8.43973 6.11719 8.4375H47.7985C48.7495 8.4375 49.6616 8.81526 50.3341 9.48776C51.0066 10.1603 51.3844 11.0724 51.3844 12.0234V41.4366C51.3844 42.3876 51.0066 43.2997 50.3341 43.9722C49.6616 44.6447 48.7495 45.0225 47.7985 45.0225ZM6.11719 10.5553C5.72626 10.5575 5.35201 10.7138 5.07558 10.9903C4.79915 11.2667 4.64284 11.641 4.64062 12.0319V41.445C4.64284 41.8359 4.79915 42.2102 5.07558 42.4866C5.35201 42.763 5.72626 42.9193 6.11719 42.9216H47.7985C48.1901 42.9216 48.5656 42.766 48.8425 42.4891C49.1194 42.2122 49.275 41.8366 49.275 41.445V12.0319C49.275 11.6403 49.1194 11.2647 48.8425 10.9878C48.5656 10.7109 48.1901 10.5553 47.7985 10.5553H6.11719Z" fill="black"/>
<path d="M50.3297 19.7605H3.58594C3.30622 19.7605 3.03798 19.6493 2.84019 19.4515C2.6424 19.2537 2.53125 18.9855 2.53125 18.7058C2.53125 18.4261 2.6424 18.1578 2.84019 17.96C3.03798 17.7622 3.30622 17.6511 3.58594 17.6511H50.3297C50.6094 17.6511 50.8777 17.7622 51.0755 17.96C51.2733 18.1578 51.3844 18.4261 51.3844 18.7058C51.3844 18.9855 51.2733 19.2537 51.0755 19.4515C50.8777 19.6493 50.6094 19.7605 50.3297 19.7605Z" fill="black"/>
<path d="M45.233 24.8992H26.5439C26.2642 24.8992 25.9959 24.7881 25.7981 24.5903C25.6004 24.3925 25.4893 24.1242 25.4893 23.8445C25.4893 23.5648 25.6004 23.2965 25.7981 23.0987C25.9959 22.9009 26.2642 22.7898 26.5439 22.7898H45.233C45.5127 22.7898 45.781 22.9009 45.9788 23.0987C46.1766 23.2965 46.2877 23.5648 46.2877 23.8445C46.2877 24.1242 46.1766 24.3925 45.9788 24.5903C45.781 24.7881 45.5127 24.8992 45.233 24.8992Z" fill="black"/>
<path d="M35.8843 30.0122H26.5439C26.2642 30.0122 25.9959 29.901 25.7981 29.7032C25.6004 29.5054 25.4893 29.2372 25.4893 28.9575C25.4893 28.6778 25.6004 28.4095 25.7981 28.2117C25.9959 28.0139 26.2642 27.9028 26.5439 27.9028H35.8843C36.164 27.9028 36.4322 28.0139 36.63 28.2117C36.8278 28.4095 36.9389 28.6778 36.9389 28.9575C36.9389 29.2372 36.8278 29.5054 36.63 29.7032C36.4322 29.901 36.164 30.0122 35.8843 30.0122Z" fill="black"/>
<path d="M45.233 35.1335H26.5439C26.2642 35.1335 25.9959 35.0224 25.7981 34.8247C25.6004 34.6269 25.4893 34.3586 25.4893 34.0789C25.4893 33.7991 25.6004 33.5308 25.7981 33.3331C25.9959 33.1353 26.2642 33.0242 26.5439 33.0242H45.233C45.5127 33.0242 45.781 33.1353 45.9788 33.3331C46.1766 33.5308 46.2877 33.7991 46.2877 34.0789C46.2877 34.3586 46.1766 34.6269 45.9788 34.8247C45.781 35.0224 45.5127 35.1335 45.233 35.1335Z" fill="black"/>
<path d="M45.2332 40.2637H8.69043C8.41071 40.2637 8.14242 40.1526 7.94463 39.9548C7.74684 39.757 7.63574 39.4887 7.63574 39.209C7.63574 38.9293 7.74684 38.6611 7.94463 38.4633C8.14242 38.2655 8.41071 38.1543 8.69043 38.1543H45.2332C45.513 38.1543 45.7812 38.2655 45.979 38.4633C46.1768 38.6611 46.2879 38.9293 46.2879 39.209C46.2879 39.4887 46.1768 39.757 45.979 39.9548C45.7812 40.1526 45.513 40.2637 45.2332 40.2637Z" fill="black"/>
<path d="M22.6207 35.1336H8.69043C8.41071 35.1336 8.14242 35.0225 7.94463 34.8247C7.74684 34.6269 7.63574 34.3586 7.63574 34.0789V23.5151C7.63574 23.2354 7.74684 22.9671 7.94463 22.7693C8.14242 22.5715 8.41071 22.4604 8.69043 22.4604H22.6207C22.9004 22.4604 23.1687 22.5715 23.3665 22.7693C23.5643 22.9671 23.6754 23.2354 23.6754 23.5151V34.0789C23.6754 34.3586 23.5643 34.6269 23.3665 34.8247C23.1687 35.0225 22.9004 35.1336 22.6207 35.1336ZM9.74512 33.0242H21.5576V24.5867H9.74512V33.0242Z" fill="black"/>
<path d="M9.45012 16.0059C10.2796 16.0059 10.952 15.3335 10.952 14.5041C10.952 13.6746 10.2796 13.0022 9.45012 13.0022C8.62065 13.0022 7.94824 13.6746 7.94824 14.5041C7.94824 15.3335 8.62065 16.0059 9.45012 16.0059Z" fill="black"/>
<path d="M14.3857 16.0059C15.2151 16.0059 15.8875 15.3335 15.8875 14.5041C15.8875 13.6746 15.2151 13.0022 14.3857 13.0022C13.5562 13.0022 12.8838 13.6746 12.8838 14.5041C12.8838 15.3335 13.5562 16.0059 14.3857 16.0059Z" fill="black"/>
<path d="M19.3222 16.0059C20.1516 16.0059 20.8241 15.3335 20.8241 14.5041C20.8241 13.6746 20.1516 13.0022 19.3222 13.0022C18.4927 13.0022 17.8203 13.6746 17.8203 14.5041C17.8203 15.3335 18.4927 16.0059 19.3222 16.0059Z" fill="black"/>
</svg>
