<svg width="54" height="54" viewBox="0 0 54 54" fill="none" xmlns="http://www.w3.org/2000/svg">
<path d="M42.8371 47.992C42.1539 47.9952 41.4768 47.8627 40.8452 47.6019C40.2137 47.3412 39.6403 46.9576 39.1583 46.4733L23.7093 31.0242C21.3712 31.9078 18.8224 32.072 16.3903 31.4956C13.9583 30.9192 11.7542 29.6287 10.0613 27.7898C8.36852 25.9509 7.26435 23.6478 6.89076 21.1765C6.51718 18.7051 6.89124 16.1784 7.96489 13.9214C8.03519 13.7679 8.14186 13.6339 8.27566 13.531C8.40946 13.4281 8.56634 13.3594 8.73271 13.3308C8.89976 13.3018 9.07135 13.3135 9.23291 13.3649C9.39448 13.4163 9.54126 13.5059 9.66084 13.6261L16.5374 20.4942L20.5537 16.478L13.6771 9.60137C13.5585 9.48201 13.4704 9.33582 13.4203 9.17517C13.3703 9.01451 13.3597 8.84413 13.3895 8.67852C13.4193 8.5129 13.4886 8.3569 13.5916 8.22379C13.6945 8.09067 13.828 7.98437 13.9808 7.91387C16.2297 6.87037 18.7377 6.51756 21.1872 6.89997C23.6368 7.28237 25.9178 8.38287 27.7416 10.0622C29.5655 11.7415 30.8501 13.924 31.433 16.3338C32.0159 18.7435 31.8708 21.272 31.0161 23.5993L46.499 39.082C47.2266 39.8106 47.7218 40.7385 47.922 41.7485C48.1222 42.7585 48.0184 43.8052 47.6237 44.7562C47.229 45.7073 46.5612 46.5198 45.7047 47.0913C44.8482 47.6627 43.8414 47.9675 42.8118 47.9668L42.8371 47.992ZM23.9624 28.7292C24.1 28.7285 24.2365 28.755 24.3639 28.8071C24.4913 28.8592 24.6072 28.936 24.7049 29.033L40.6518 44.9799C41.234 45.5529 42.0192 45.8727 42.8362 45.8694C43.6532 45.8662 44.4358 45.5403 45.0135 44.9625C45.5912 44.3848 45.9172 43.6022 45.9204 42.7852C45.9237 41.9682 45.6039 41.183 45.0308 40.6007L29.0586 24.6286C28.9087 24.4794 28.8074 24.2883 28.7682 24.0805C28.7291 23.8726 28.7538 23.6577 28.8393 23.4642C29.6265 21.6473 29.8802 19.6438 29.5706 17.688C29.2611 15.7322 28.4011 13.9049 27.0913 12.4199C25.7815 10.9348 24.076 9.85336 22.1741 9.30196C20.2723 8.75055 18.2528 8.75197 16.3518 9.30608L22.8149 15.7692C22.9131 15.8672 22.9911 15.9836 23.0442 16.1117C23.0974 16.2398 23.1247 16.3772 23.1247 16.516C23.1247 16.6547 23.0974 16.792 23.0442 16.9201C22.9911 17.0483 22.9131 17.1647 22.8149 17.2627L17.3052 22.7638C17.2072 22.8621 17.0909 22.9401 16.9627 22.9932C16.8346 23.0464 16.6972 23.0738 16.5585 23.0738C16.4198 23.0738 16.2824 23.0464 16.1543 22.9932C16.0261 22.9401 15.9098 22.8621 15.8118 22.7638L9.30645 16.2586C8.72331 18.1723 8.70292 20.2133 9.24769 22.1382C9.79246 24.0632 10.8794 25.791 12.3789 27.1153C13.8784 28.4396 15.7272 29.3045 17.7047 29.6072C19.6823 29.9098 21.7052 29.6373 23.5321 28.822C23.6662 28.7576 23.8136 28.7259 23.9624 28.7292Z" fill="black"/>
<path d="M42.5502 43.6384C42.2711 43.6367 42.0041 43.5245 41.8077 43.3263L37.6396 39.1581C37.5329 39.0622 37.4469 38.9455 37.3868 38.8152C37.3268 38.6849 37.294 38.5438 37.2904 38.4003C37.2868 38.2569 37.3125 38.1142 37.3659 37.981C37.4193 37.8479 37.4993 37.7271 37.6011 37.6259C37.7028 37.5247 37.8241 37.4454 37.9576 37.3927C38.091 37.3401 38.2338 37.3152 38.3772 37.3196C38.5206 37.324 38.6616 37.3577 38.7915 37.4185C38.9215 37.4792 39.0377 37.5659 39.133 37.6731L43.2927 41.8328C43.4377 41.9814 43.5361 42.1691 43.5756 42.3729C43.6152 42.5768 43.5942 42.7878 43.5152 42.9798C43.4362 43.1718 43.3028 43.3365 43.1313 43.4536C42.9598 43.5706 42.7578 43.6349 42.5502 43.6384Z" fill="black"/>
</svg>
